<?xml version="1.0" encoding="utf-8"?>
<!-- Generator: Adobe Illustrator 24.2.0, SVG Export Plug-In . SVG Version: 6.00 Build 0)  -->
<svg version="1.1" id="Layer_1" xmlns="http://www.w3.org/2000/svg" xmlns:xlink="http://www.w3.org/1999/xlink" x="0px" y="0px"
	 viewBox="0 0 525.6 525.6" style="enable-background:new 0 0 525.6 525.6;" xml:space="preserve">
<style type="text/css">
	.st0{fill:#FFFDFD;}
	.st1{fill:#F6B43E;}
	.st2{fill:#ED3237;}
	.st3{fill:#01AEF0;}
</style>
<g>
	<g>
		<path class="st0" d="M253.11,80.3c22.6-1.16,45.46,1.73,66.88,9.12c40.48,13.56,75.67,42.1,97.52,78.76
			c7.69,12.75,13.75,26.46,18.19,40.66c13.07,42.56,9.97,89.88-8.77,130.28c-15.51,33.73-41.55,62.53-73.6,81.28
			c-33.61,19.89-73.89,28.17-112.63,23.22c-22.86-2.88-45.22-10.09-65.26-21.49c-21.88-12.09-40.94-29.05-56.15-48.84
			c-20.29-26.7-33.14-59.02-36.37-92.41c-3.17-31.83,1.99-64.47,15.24-93.61c14.04-31.2,36.99-58.36,65.55-77.22
			C190.14,92.39,221.35,81.92,253.11,80.3z M241.11,90.92c0.69,4.95,1.3,9.92,2.62,14.75c0.61,1.21,0.89,2.56,0.7,3.92
			c-4.89-5.25-9.16-11.05-13.74-16.56c-1.96,0.31-3.92,0.62-5.87,0.96c1.34,8.87,3.15,17.66,4.49,26.53
			c1.75-0.31,3.5-0.63,5.25-0.96c-1.11-6.22-2.08-12.47-3.31-18.67c4.81,5.44,9.3,11.16,13.95,16.74c1.81-0.28,3.63-0.56,5.44-0.87
			c-1.24-8.86-2.95-17.64-4.44-26.46C244.5,90.51,242.81,90.72,241.11,90.92z M254.62,116.49c1.92,0.04,3.84,0.06,5.77,0.08
			c0.64-1.8,1.29-3.61,1.95-5.41c3.3,0,6.61,0.03,9.92,0.06c0.5,1.89,1,3.78,1.47,5.68c1.97,0.06,3.94,0.13,5.92,0.2
			c-2.23-9.18-5.89-17.95-8.47-27.05c-2.19-0.17-4.38-0.32-6.57-0.45C261.27,98.56,257.79,107.47,254.62,116.49z M287.28,90.84
			c-0.4,1.49-0.79,2.98-1.18,4.48c2.71,0.7,5.42,1.38,8.12,2.12c-1.87,7.15-3.49,14.38-4.99,21.62c1.86,0.28,3.72,0.56,5.59,0.83
			c1.52-7.1,2.98-14.22,4.86-21.22c2.56,0.39,5.04,1.14,7.53,1.83c0.46-1.58,0.91-3.16,1.36-4.74
			C301.45,94.21,294.4,92.37,287.28,90.84z M314.25,97.81c-2.65,8.51-5.38,17-8.14,25.48c1.88,0.53,3.78,1.02,5.7,1.42
			c2.27-8.58,5.36-16.92,7.88-25.44C317.88,98.78,316.07,98.28,314.25,97.81z M193.64,104.41c2.77,8.47,6,16.81,9.37,25.05
			c1.75-0.41,3.41-1.08,5.12-1.64c-1.21-3.37-2.5-6.71-3.7-10.08c2.94-1.17,5.91-2.34,9.05-2.86c1.58,2.9,2.93,5.91,4.41,8.87
			c1.91-0.69,3.81-1.4,5.72-2.11c-3.17-3.28-3.01-9.48-8.06-10.74c3.85-4.52,0.2-12.53-5.86-12
			C204.04,99.63,199.05,102.79,193.64,104.41z M329.26,106.59c-5.88,2.5-9.28,9.2-9.43,15.38c-0.18,7.9,8.55,13.73,15.91,12.18
			c6.56-1.8,10.42-8.83,10.85-15.26C347.19,110.22,337.12,103.86,329.26,106.59z M167.25,119.59c4.64,7.59,8.79,15.48,13.29,23.16
			c5.84-3.59,11.85-6.91,17.68-10.53c-0.83-1.35-1.64-2.71-2.45-4.07c-4.35,2.44-8.53,5.2-12.99,7.46
			c-1.05-1.98-2.13-3.93-3.22-5.88c3.81-2.24,7.63-4.45,11.39-6.75c-0.92-1.34-1.85-2.67-2.79-3.99c-3.54,2.3-7.25,4.33-10.78,6.66
			c-1.01-1.62-2-3.24-2.99-4.86c3.99-2.49,8.23-4.61,12.12-7.28c-0.51-1.54-1.54-2.82-2.42-4.15
			C178.62,113.01,172.75,116,167.25,119.59z M341.68,139.95c1.36,1.16,2.72,2.32,4.09,3.48c3.88-5.1,7.63-10.3,11.51-15.4
			c-1.12,7.27-1.74,14.6-2.74,21.88c1.46,1.19,2.91,2.4,4.37,3.61c5.41-7.19,10.72-14.45,16.09-21.68c-1.42-1-2.8-2.06-4.31-2.9
			c-3.88,4.5-6.98,9.63-10.83,14.16c0.61-6.89,1.45-13.78,2.55-20.62c-1.58-1.31-3.18-2.6-4.77-3.89
			C352.22,125.63,347.1,132.9,341.68,139.95z M143.19,139.39c0.99,1.16,1.98,2.33,2.98,3.5c2.15-1.64,3.96-3.81,6.45-4.96
			c4.75,5.48,9.17,11.26,13.91,16.75c1.34-1.25,2.76-2.43,3.98-3.8c-4.38-5.85-9.26-11.32-13.84-17.01
			c2.08-1.68,4.16-3.38,6.24-5.07c-1.01-1.28-2.04-2.56-3.05-3.84C154.46,129.95,148.57,134.38,143.19,139.39z M252.85,128
			c-28.2,2.02-55.57,13.53-76.86,32.1c-25.44,21.79-42.18,53.4-45.92,86.69c-2.82,23.82,0.87,48.36,10.56,70.3
			c11.77,26.8,32.46,49.68,58.16,63.76c19.72,10.98,42.32,16.8,64.9,16.54c37.3,0.07,74.06-16.92,98.62-44.92
			c26.03-28.81,38.31-69.26,33.06-107.7c-4.79-38.35-27.2-73.91-59.43-95.14C311.65,133.46,281.93,125.68,252.85,128z
			 M136.73,146.17c-1,1.31-2.02,2.61-3.04,3.91c4.48,4.22,9.52,7.78,14,12c-6.91-1.3-13.86-2.36-20.79-3.5
			c-1.2,1.56-2.41,3.12-3.63,4.68c6.84,5.5,13.4,11.38,20.43,16.63c1.26-1.11,2.36-2.38,3.52-3.6c-4.66-4.32-9.73-8.15-14.56-12.26
			c7.12,1.06,14.24,2.19,21.32,3.49c1.13-1.51,2.42-2.94,3.27-4.63C150.53,157.18,143.81,151.43,136.73,146.17z M362.07,156
			c1.27,1.57,2.48,3.24,4.07,4.52c1.74-0.52,3.35-1.37,5.01-2.11c2.22,2.49,4.38,5.04,6.59,7.55c-1,1.64-2.01,3.28-3.01,4.92
			c1.34,1.6,2.67,3.2,4.02,4.79c4.56-8.31,9.19-16.58,13.82-24.86c-1.43-1.63-2.84-3.28-4.23-4.95
			C379.52,149.1,370.88,152.78,362.07,156z M380.61,178.98c3.45,5.35,6.92,10.7,10.26,16.13c1.36-0.82,2.73-1.64,4.1-2.44
			c-2.25-3.97-4.89-7.7-7.18-11.64c5.96-4,12.27-7.57,17.86-12.06c-0.83-1.63-1.85-3.15-2.82-4.68
			C395.46,169.24,388.04,174.11,380.61,178.98z M115.49,176.8c7.67,4.42,15.2,9.1,22.97,13.34c0.91-1.57,1.85-3.13,2.81-4.67
			c-7.47-4.78-15.29-8.98-22.82-13.65C117.45,173.47,116.46,175.13,115.49,176.8z M104.03,201.91c5.67,1.9,11.33,3.85,16.94,5.94
			c-6.59,1.82-13.46,2.42-20.04,4.22c-1.33,1.55-1.55,3.74-2.19,5.62c8.36,2.9,16.66,5.95,25.07,8.7c0.48-1.66,0.97-3.32,1.47-4.97
			c-5.63-2.23-11.44-3.99-17.08-6.21c6.8-1.83,13.78-2.88,20.68-4.26c0.62-1.84,1.24-3.67,1.84-5.51
			c-8.38-2.62-16.5-6.07-24.94-8.48C105.08,198.57,104.59,200.25,104.03,201.91z M405.76,207.08c-2.69,0.83-5.51,2.4-6.37,5.27
			c-1.4,4.95-0.11,10.69,3.56,14.37c2.44,2.34,6.14,2.22,9.2,1.38c5.46-1.55,10.89-3.18,16.33-4.81c-0.51-1.81-1.01-3.62-1.49-5.44
			c-6.21,1.17-12.05,3.78-18.27,4.87c-4.95,0.8-7.14-7.59-2.55-9.41c5.83-2.27,11.98-3.67,18-5.39c-0.6-1.91-1.17-3.81-1.8-5.7
			C416.84,203.87,411.28,205.4,405.76,207.08z M101.31,228.66c-8.56,3.54-10.14,16.93-2.75,22.44c5.07,3.38,12.23,4.21,17.6,1.05
			c5.38-3.62,6.78-11.32,4.38-17.08C117.18,228.21,108.03,226.46,101.31,228.66z M404.86,236.01c-0.24,1.76-0.14,3.55-0.07,5.33
			c6.26-0.6,12.55-0.98,18.79-1.79c-5.57,4.57-11.77,8.29-17.41,12.75c-0.15,1.94,0.09,3.89,0.22,5.83
			c8.72-1.01,17.49-1.48,26.22-2.48c-0.09-1.75-0.17-3.51-0.24-5.26c-5.99,0.47-11.97,1.03-17.97,1.37
			c5.55-4.07,11.18-8.06,16.87-11.93c-0.09-2.1-0.21-4.2-0.32-6.29C422.28,234.61,413.53,235,404.86,236.01z M105.12,261.79
			c0.12,3.84,0.37,7.67,0.53,11.5c1.53-0.06,3.06-0.13,4.59-0.2c-0.11-2.2-0.23-4.4-0.3-6.59c1.97,0.89,4.28,1.67,5.36,3.72
			c1.97,3.53,0.41,8.53-3.37,10.11c-4.83,2.26-12.44,1.38-14.17-4.47c-1.38-3.42,1.35-6.18,3.51-8.4c0.17-1.84-0.1-3.69-0.22-5.52
			c-10.29,2.79-10.75,18.74-1.91,23.51c7.11,3.98,18.2,1.61,21.1-6.61c1.98-4.79-0.02-10.06-3.69-13.38
			c0.72-0.16,2.16-0.49,2.88-0.65c-0.05-1.26-0.09-2.52-0.13-3.78C114.57,261.33,109.85,261.63,105.12,261.79z M406.25,264.18
			c-0.03,1.86-0.06,3.72-0.09,5.59c8.82,0.57,17.66,0.4,26.5,0.53c-0.06-1.94-0.1-3.87-0.16-5.81
			C423.75,264.48,415,264.32,406.25,264.18z M405.16,282.64c-0.31,1.8-0.62,3.61-0.91,5.43c8.1,4.53,16.21,9.03,24.23,13.72
			c0.47-1.91,0.96-3.83,1.03-5.79c-5.82-3.51-12.26-5.91-18.04-9.52c6.79-0.8,13.63-1.23,20.4-2.26c0.25-1.95,0.53-3.88,0.81-5.81
			C423.48,279.66,414.36,281.39,405.16,282.64z M96.93,296.94c0.2,1.91,0.69,3.77,1.19,5.62c8.47-2.29,17.08-4.04,25.59-6.14
			c-0.37-1.85-0.76-3.7-1.16-5.54C113.99,292.82,105.41,294.72,96.93,296.94z M101.98,317.23c0.63,2.03,1.27,4.07,1.87,6.12
			c9.45,0.49,18.9,0.95,28.36,1.09c-0.71-1.94-1.4-3.87-2.09-5.81c-1.89-0.01-3.78-0.03-5.67-0.05c-0.93-3.11-1.93-6.2-3.08-9.24
			c1.56-1.21,3.15-2.39,4.76-3.55c-0.66-1.98-1.31-3.97-1.98-5.95C116.87,305.78,109.31,311.35,101.98,317.23z M401.06,301.88
			c-2.05,6.57-4.29,13.08-6.23,19.69c1.51,0.47,3.03,0.93,4.56,1.38c1.49-4.65,2.76-9.38,4.45-13.97c2.21,0.36,4.34,1.09,6.49,1.73
			c-1.29,4.24-2.65,8.45-4.11,12.63c1.54,0.5,3.09,0.99,4.65,1.45c1.24-4.24,2.49-8.48,4.11-12.59c1.63,0.6,3.29,1.19,4.95,1.77
			c-1.25,4.61-2.89,9.11-4.16,13.73c1.41,0.52,2.83,1.06,4.24,1.6c2.1-6.43,4.25-12.86,6.13-19.36
			C417.69,307.56,409.48,304.38,401.06,301.88z M389.19,331.14c3.1,1.72,6.21,3.45,9.23,5.33c-1.63,2.81-3.2,5.68-5.38,8.1
			c-2.95-1.38-5.88-2.82-8.93-3.94c-1,1.84-2.03,3.67-3.09,5.48c4.66,0.07,8.26,4.92,13.07,3c0.53,2.29,1.3,4.78,3.59,5.91
			c3.21,2.26,7.9,1.03,9.88-2.27c2.72-4.38,5.08-8.97,7.44-13.55c-7.76-4.21-15.31-8.8-23.13-12.9
			C390.98,327.92,390.08,329.53,389.19,331.14z M123.5,335.82c0.09,4.5,2.36,8.57,2.96,12.98c0.16,1.6-1.52,2.41-2.82,2.71
			c-3.87-1.56-6.27-6.89-2.92-10.16c-0.93-1.61-1.91-3.19-2.9-4.75c-1.37,1.72-3.05,3.38-3.51,5.62c-0.92,4.82,1.84,9.65,5.43,12.68
			c4.21,3.58,11.51,0.53,12.18-4.86c-0.42-4.84-2.76-9.29-2.95-14.16c0.75-0.41,2.24-1.23,2.99-1.65c3.85,2.42,7.16,7.9,3.17,11.74
			c0.88,1.36,1.73,2.74,2.72,4.03c3.31-1.52,4.81-5.71,3.97-9.14c-0.94-4.04-3.16-7.99-6.69-10.29
			C130.87,327.66,124.02,330.61,123.5,335.82z M367.8,362.81c-2.17,4.92,2.44,11.61,7.9,10.68c5.01-1.16,7.93-6.53,12.94-7.51
			c3.38,1.38,1.63,5.69-0.52,7.39c-1.43,1.8-3.87,1.1-5.79,0.9c-1.17,1.3-2.33,2.62-3.48,3.94c2.9,1.86,6.68,2.67,9.76,0.72
			c4.08-2.72,7.85-7.56,6.67-12.74c-1.01-3.56-4.95-6.76-8.75-5.61c-4.12,1.62-6.98,5.34-11.03,7.08c-1.68,0.6-3.47-1.06-3.24-2.79
			c0.76-4.19,5.06-8.11,9.45-6.17c1.04-1.39,2.08-2.78,3.1-4.18c-2.27-0.85-4.64-2.43-7.15-1.56
			C373,354.23,369.46,358.4,367.8,362.81z M150.98,360.93c3.47,3.64,6.8,7.41,10.27,11.06c-1.69,1.56-3.38,3.1-5.08,4.64
			c-2.87-3.19-5.89-6.26-8.64-9.55c-1.21,1-2.42,2-3.63,3.01c2.89,3.35,5.84,6.65,8.95,9.81c-1.37,1.32-2.74,2.64-4.11,3.96
			c-3.17-3.58-6.33-7.17-9.69-10.58c-1.11,1.06-2.22,2.11-3.33,3.17c4.38,4.96,8.96,9.74,13.31,14.73
			c6.61-5.99,12.9-12.32,19.51-18.32c-4.76-4.9-9.24-10.06-13.83-15.11C153.47,358.81,152.22,359.87,150.98,360.93z M355.83,373.71
			c5.91,6.57,11.49,13.42,17.28,20.09c1.46-1.26,2.91-2.54,4.37-3.81c-5.99-6.39-11.24-13.43-17.25-19.78
			C358.36,370.5,357.25,372.57,355.83,373.71z M173.99,377.06c-5.37,7.05-10.33,14.42-15.55,21.59c1.5,1.09,3,2.2,4.49,3.32
			c2.02-2.69,3.98-5.42,5.9-8.19c2.84,2.03,5.65,4.12,8.48,6.16c-1.92,2.64-3.98,5.19-5.65,8c1.22,1.39,2.7,2.51,4.13,3.67
			c5.39-7.2,10.4-14.67,15.76-21.89c-1.59-1.1-3.17-2.19-4.76-3.27c-2.3,3.15-4.17,6.66-6.95,9.43c-2.92-1.75-5.52-3.96-8.27-5.94
			c2.28-3.19,4.53-6.4,6.99-9.46C177.13,379.23,175.73,377.87,173.99,377.06z M342.23,384.05c4.09,6.06,8.69,11.77,12.61,17.94
			c-1.92,1.86-4.18,3.33-6.33,4.9c0.97,1.29,1.95,2.58,2.95,3.87c5.59-4.58,11.74-8.46,17.31-13.08c-0.61-1.34-1.51-2.52-2.53-3.56
			c-2.48,1.1-4.44,3.05-6.58,4.65c-4.37-5.86-8.31-12.05-12.86-17.76C345.19,381.88,343.72,382.99,342.23,384.05z M320.11,396.18
			c1.42,3.18,3.48,6.19,4.16,9.65c0.05,6.19-0.81,12.34-0.99,18.53c1.89-0.9,3.79-1.79,5.72-2.63c0.07-4.32-0.05-8.63,0.01-12.94
			c3.33,2.64,6.53,5.44,9.83,8.13c1.97-0.89,3.95-1.77,5.87-2.79c-4.76-4.02-10.24-7.13-14.92-11.24c-1.87-2.79-2.92-6.05-4.4-9.05
			C323.6,394.56,321.84,395.33,320.11,396.18z M202.89,394.63c-2.94,6.7-6.18,13.27-9.05,20.01c-2.5-1.15-4.98-2.34-7.43-3.58
			c-0.6,1.5-1.19,3.02-1.76,4.55c6.6,2.92,12.99,6.29,19.6,9.18c0.67-1.4,1.35-2.8,2.04-4.18c-2.47-1.21-4.95-2.4-7.45-3.56
			c3.04-6.73,6.25-13.4,9.18-20.18C206.3,396.12,204.6,395.36,202.89,394.63z M245.47,416.54c-2.21,0.95-1.08,3.27-0.69,4.97
			c1.26-1.11,2.48-2.28,3.9-3.2c2.04,0.16,2.63,2.58,1.47,4.05c-2.03,1.97-4.73,3.17-6.61,5.34c-1.28,1.57-1.68,3.62-2.38,5.48
			c2.85,0.3,5.65,0.98,8.49,1.4c2.94-0.21,3.11-3.66,3.29-5.89c-0.8,0.72-1.58,1.45-2.35,2.2c-1.78-0.37-3.55-0.71-5.32-1.06
			c2.04-1.84,4.44-3.21,6.59-4.9c1.97-1.48,2.03-4.14,2.55-6.32C252.3,416.02,248.46,414.05,245.47,416.54z M259.14,416.38
			c-2.06,0.54-3.18,2.63-3.71,4.54c-1.38,4.17-1.4,9.18,1.34,12.82c1.88,2.22,5.78,1.89,7.24-0.64c2.27-3.58,2.41-8.19,1.46-12.22
			C264.88,418.09,262.17,415.41,259.14,416.38z M271.17,416.42c-3.73,1.36-4.21,5.99-4.09,9.42c0.01,3.49,0.94,7.98,4.64,9.31
			c3.37,0.86,5.89-2.44,6.42-5.39c0.62-3.88,0.52-8.23-1.84-11.55C275.19,416.58,273.06,415.73,271.17,416.42z M278.16,416.3
			c0.3,1.42,0.6,2.84,0.91,4.27c1.86-1.58,4.19-2.07,6.58-2.1c-1.41,2.73-3.18,5.29-4.25,8.19c-0.82,2.47-0.89,5.69,1.41,7.41
			c2.05,1.13,4.17-0.3,5.08-2.16c-1.33-0.71-3.19-1.11-3.32-2.94c0.05-4.93,4.17-8.66,4.07-13.6
			C285.14,415.58,281.65,415.96,278.16,416.3z"/>
	</g>
	<path class="st0" d="M267.52,96.38c1.29,3.32,2.24,6.77,3.21,10.21c-2.27-0.05-4.53-0.1-6.78-0.15
		C265.11,103.08,266.23,99.7,267.52,96.38z"/>
	<path class="st0" d="M200.24,107.16c2.76-1.24,5.48-2.86,8.56-3.07c2.21-0.08,2.67,2.51,3.71,3.91c-2.2,3.32-6.27,4.15-9.74,5.52
		C201.95,111.39,201.1,109.27,200.24,107.16z"/>
	<path class="st0" d="M332.17,111.31c4.19-1.38,9.06,2.04,8.96,6.5c-0.17,4.13-2.27,8.39-5.76,10.69
		c-4.41,2.79-10.73-1.51-10.08-6.62C325.83,117.67,328.01,112.99,332.17,111.31z"/>
	<path class="st0" d="M306.5,148.71c1.48-1.64,3.13-3.11,4.95-4.37c5.4,2.38,10.54,5.31,15.88,7.82l-0.29,0.21
		c-0.37,0.28-1.12,0.85-1.49,1.13c-2.91,0.65-5.85,1.2-8.77,1.74C313.4,152.99,309.93,150.87,306.5,148.71z"/>
	<path class="st0" d="M297.01,146.74c2.35,1.08,4.69,2.21,7.06,3.27c-0.66,2.1-1.52,4.13-2.44,6.13c-2.51-1.75-4.92-3.65-7.39-5.45
		C295.15,149.37,296.08,148.05,297.01,146.74z"/>
	<path class="st0" d="M292.78,152.57c2.34,1.52,4.55,3.22,6.77,4.91c-2.4,0.44-4.82,0.85-7.24,1.16
		C292.23,156.6,292.37,154.57,292.78,152.57z"/>
	<path class="st0" d="M375.73,156.61c3.24-1.46,6.5-2.89,9.83-4.15c-1.66,3.15-3.51,6.2-5.46,9.18
		C378.65,159.95,377.19,158.28,375.73,156.61z"/>
	<path class="st0" d="M319.66,157.02c3.73-0.73,7.43-1.64,11.21-2.13c5.11,2.85,9.56,6.77,14.17,10.37
		c-3.79,1.23-7.61,2.36-11.46,3.34C329.2,164.43,324.38,160.79,319.66,157.02z"/>
	<path class="st0" d="M305.69,159.64c3.6-0.8,7.3-2,11.01-1.55c5.23,3.06,9.77,7.19,14.29,11.2c-4.39,0.88-8.73,2.39-13.19,2.64
		C313.78,167.82,309.64,163.82,305.69,159.64z"/>
	<path class="st0" d="M292.93,160.75c2.02-0.19,4.06-0.41,6.09-0.65c-0.1,1.55-0.1,3.1,0,4.65c1.08,1.26,2.63,1.96,3.98,2.89
		c1.19-1.33,2.06-2.89,2.76-4.53c3.35,3.04,6.45,6.33,9.63,9.54c-4.31,0.74-8.62,1.47-12.94,2.08
		C299.42,169.98,296.36,165.23,292.93,160.75z"/>
	<path class="st0" d="M292.13,163.61c2.85,3.64,5.46,7.48,7.68,11.54c-3,0.29-6,0.52-9.01,0.53
		C289.83,171.59,290.96,167.52,292.13,163.61z"/>
	<path class="st0" d="M335.52,170.43c3.81-1.13,7.62-2.28,11.42-3.45c5.58,5.18,10.88,10.68,15.62,16.64
		c-4.42,1.04-8.83,2.09-13.26,3.08C345.31,180.78,340.49,175.51,335.52,170.43z"/>
	<path class="st0" d="M268.37,177.07c2.62-3.93,6.66-7.6,11.77-6.83c0.86,2.05,1.65,4.12,2.45,6.19
		C277.9,177.31,273.11,177.12,268.37,177.07z"/>
	<path class="st0" d="M283.46,171.48c1.78,1.42,3.37,3.17,3.35,5.61C284.16,176.43,283.75,173.78,283.46,171.48z"/>
	<path class="st0" d="M319.65,174.07c4.43-0.88,8.82-1.92,13.2-3.01c5.1,4.99,9.94,10.27,14.05,16.12
		c-5.16,1.01-10.31,2.16-15.56,2.6C327.93,184.2,323.75,179.15,319.65,174.07z"/>
	<path class="st0" d="M303.59,176.78c4.47-0.53,8.91-1.31,13.33-2.19c4.44,4.94,8.6,10.17,12.12,15.82
		c-5.87,0.81-11.75,1.57-17.64,2.19C309.03,187.21,306.37,181.96,303.59,176.78z"/>
	<path class="st0" d="M293.85,177.93c2.42-0.18,4.88-0.8,7.33-0.54c3.01,4.9,5.45,10.14,7.74,15.41
		c-6.45,0.57-12.93,1.62-19.42,1.31c0.28-3.09,0.79-6.15,1.09-9.23c2.92-0.73,7.39-0.95,6.86-5.12
		C296.24,179.16,295.04,178.55,293.85,177.93z"/>
	<path class="st0" d="M266.95,179.42c5.49,0.03,10.97-0.28,16.47-0.37c0.66,2.49,1.1,5.1-0.07,7.53c-1.17,2.63-0.65,5.45,0.11,8.11
		c-5.02,0.26-10.04,0.26-15.06,0.35C266.59,190.06,265.85,184.65,266.95,179.42z"/>
	<path class="st0" d="M350.86,188.66c4.4-1,8.78-2.04,13.14-3.19c4.09,5.77,8.03,11.67,11.2,18.01c-4.69,1.12-9.4,2.22-14.11,3.25
		C358.01,200.53,354.65,194.46,350.86,188.66z"/>
	<path class="st0" d="M332.92,191.94c5.14-0.7,10.23-1.71,15.32-2.74c4.14,5.58,7.46,11.73,10.46,17.98
		c-5.4,1.21-10.87,2.01-16.3,3.04C339.47,204.01,336.43,197.85,332.92,191.94z"/>
	<path class="st0" d="M312.25,195.02c6.06-0.92,12.26-2.07,18.32-2.27c3.74,5.59,6.67,11.7,9.4,17.84
		c-7.17,1.03-14.36,1.87-21.55,2.74C316.74,207.11,314.72,200.98,312.25,195.02z"/>
	<path class="st0" d="M290.03,196.49c6.64-0.13,13.25-0.76,19.84-1.48c2.49,5.98,4.33,12.19,6.41,18.31
		c-7.66,1.16-15.43,1.27-23.13,2C292.41,208.99,291.02,202.77,290.03,196.49z"/>
	<path class="st0" d="M255.26,197.27c2.08,0.03,4.16,0.05,6.25,0.06c0.26,6.25,0.12,12.5,0.14,18.76c-3.2-0.18-6.58,0.47-9.64-0.43
		c-0.77-3.55-1.32-7.32-3.74-10.2C251.64,203.77,255,201.41,255.26,197.27z"/>
	<path class="st0" d="M270.95,197.18c4.54,0.1,9.1-0.32,13.64,0.12c-2.4,5.05-7.66,7.41-11.25,11.38c-0.12,2.48,0.46,4.92,0.72,7.37
		c-3.35,0.01-6.7,0.03-10.04,0.08c-0.05-3.66-0.04-7.32-0.13-10.98c2.01-0.09,4.6,0.8,6.01-1.15
		C271.92,202.23,271.65,199.49,270.95,197.18z"/>
	<path class="st0" d="M279.79,215.58c3.02-4.05,5.84-8.28,9.28-11.99c0.72,3.93,1.27,7.9,1.68,11.88
		C287.1,215.52,283.44,215.58,279.79,215.58z"/>
	<path class="st0" d="M361.93,208.8c4.79-1.04,9.57-2.12,14.33-3.31c3.21,6.49,5.88,13.26,7.94,20.21
		c-5.24,1.08-10.52,1.89-15.77,2.85C366.82,221.79,364.56,215.22,361.93,208.8z"/>
	<path class="st0" d="M343.07,212.35c5.57-0.62,11.11-2.47,16.63-2.69c2.92,6.15,4.87,12.72,6.5,19.31
		c-5.76,0.71-11.48,1.65-17.24,2.34C347.64,224.81,345.65,218.46,343.07,212.35z"/>
	<path class="st0" d="M319.02,215.52c7.29-0.83,14.58-1.72,21.84-2.84c2.41,6.15,4.53,12.42,5.91,18.89
		c-8.02,0.82-16.1,2.04-24.11,2.19C321.55,227.66,320.53,221.54,319.02,215.52z"/>
	<g>
		<path class="st0" d="M293.43,217.58c7.77-0.61,15.56-1.02,23.31-1.92c1.39,6.12,2.82,12.24,3.59,18.48
			c-8.39,0.51-16.76,1.4-25.17,1.28C294.88,229.45,294.19,223.51,293.43,217.58z M300.7,228.23c2.02,0.75,4,2.61,6.29,1.99
			c1.27-1.78-0.57-3.66-1.59-5.07C303.13,224.65,301.98,226.83,300.7,228.23z"/>
	</g>
	<path class="st0" d="M278.36,218.33c4.28-0.4,8.57-0.67,12.87-0.82c0.7,6.04,1.29,12.09,1.81,18.14
		c-9.69,0.75-19.41,0.4-29.11,0.46c0.09-5.96,0.02-11.91,0.03-17.86c3.32-0.01,6.64,0,9.96,0.04c0.67,2.12,1.64,4.13,3.06,5.85
		C277.46,222.2,277.91,220.27,278.36,218.33z"/>
	<path class="st0" d="M251.95,218.32c3.23-0.06,6.46-0.06,9.69-0.08c0.06,5.97-0.01,11.95,0.05,17.93
		c-7.03-0.07-14.07-0.06-21.1-0.05c-0.46-0.66-1.36-1.98-1.82-2.64c3.46-3.19,8.6-3.68,11.72-7.36c1.82,1.72,3.6,3.59,6.09,4.33
		C254.42,226.66,252.1,222.82,251.95,218.32z"/>
	<path class="st0" d="M368.94,230.75c5.31-0.94,10.62-1.9,15.95-2.79c2.23,7.83,3.33,15.91,4.67,23.91
		c-0.08,6.56,0.04,13.11-0.16,19.66l-0.34,0.09c-6.15,1.63-12.37,2.9-18.57,4.27c0.94-6.6,1.41-13.26,1.41-19.92
		c5.57-0.94,11.02-2.91,16.73-2.86c0.09-0.99,0.18-1.98,0.28-2.97c-5.7,1.07-11.33,2.48-17.04,3.48
		C371.4,245.94,370.65,238.26,368.94,230.75z"/>
	<path class="st0" d="M140.15,230.69c0.73-0.84,1.51-1.64,2.29-2.44c1.96,0.35,3.93,0.71,5.9,1.06c3.81,7.43,2.28,15.94,2.72,23.94
		c-4.74-1.16-9.5-2.24-14.31-3.06C137.41,243.63,138.29,237.03,140.15,230.69z"/>
	<path class="st0" d="M349.74,233.47c5.7-0.65,11.37-1.65,17.08-2.3c1.42,7.5,2.64,15.08,2.62,22.73
		c-5.6,1.61-11.44,2.37-17.23,2.93C352.28,248.97,350.9,241.21,349.74,233.47z"/>
	<path class="st0" d="M102.91,234.13c5.47-2.1,14.74,0.62,14.08,7.75c-0.68,7.15-10.01,8-14.96,4.72
		C97.09,244.09,97.68,235.91,102.91,234.13z"/>
	<g>
		<path class="st0" d="M322.91,236.24c8.2-0.58,16.35-1.7,24.54-2.26c1.37,7.72,2.42,15.51,2.74,23.35
			c-8.52,1.5-17.15,2.37-25.76,3.15C324.48,252.37,324.03,244.27,322.91,236.24z M330.77,240.47c0.22,1.94,0.01,4.27,1.76,5.6
			c2.7,2.33,6.51,1.6,9.77,1.46C338.98,244.43,334.26,243.43,330.77,240.47z"/>
	</g>
	<path class="st0" d="M295.57,237.94c8.37-0.63,16.79-0.73,25.16-1.53c0.86,8.08,1.72,16.19,1.45,24.33
		c-8.66,0.91-17.35,1.4-26.04,1.83C296.3,254.35,295.66,246.15,295.57,237.94z"/>
	<path class="st0" d="M225.39,246.91c0.32-3.1,0.28-6.46,1.99-9.2c0.72-0.04,2.16-0.14,2.88-0.19c-0.11,3.92-0.4,7.84-0.52,11.76
		C228.29,248.48,226.84,247.69,225.39,246.91z"/>
	<path class="st0" d="M232.54,237.95c3.17,0.27,5.87,2.59,9.08,2.31c0.19-0.52,0.57-1.56,0.76-2.08c5.07,0.19,10.15,0.32,15.23,0.18
		c-1.15,2.39-2.17,5.09-1.15,7.73c1.72,5.43,5.85,11.32,1.85,16.87c0.88-0.59,2.64-1.78,3.52-2.37c-0.08,0.78-0.23,2.32-0.3,3.09
		c-1.04-0.18-2.07-0.37-3.1-0.55c-2.1,0.16-4.21,0.26-6.31,0.34c0.33-4.87,1.03-9.71,1-14.59c-4.03,3.68-3.76,9.49-3.72,14.48
		c-4.07-0.14-8.15-0.34-12.22-0.49c0.05-2.1,0.4-4.26-0.13-6.33c-0.8-2.65-3.11-4.38-5.09-6.13
		C232.07,246.25,232.37,242.1,232.54,237.95z"/>
	<path class="st0" d="M264.04,238.48c9.73,0.11,19.45-0.45,29.17-0.26c0.52,8.11,0.34,16.25,0.8,24.37
		c-7.17,0.39-14.35,0.71-21.53,0.81c0.25-4.71,0.5-9.42,0.32-14.14c-2.94-0.1-5.87-0.12-8.8-0.07
		C263.96,245.61,263.97,242.05,264.04,238.48z"/>
	<path class="st0" d="M261.25,239.38c1.21,1,1.53,5.26-0.16,6C260.11,243.57,260.81,241.26,261.25,239.38z"/>
	<path class="st0" d="M178.92,249.34c5.67,0.5,8.62-6.29,14.38-5.22c0.48,2.9,0.72,6.01,2.45,8.52c1.9,2.68,4.33,4.95,6.08,7.76
		c-8.79-0.43-17.53-1.69-26.23-3.02C176.64,254.68,177.76,252,178.92,249.34z"/>
	<path class="st0" d="M136.45,252.3c4.99,1.05,9.96,2.18,14.96,3.19c3.37,6.29,2.7,13.52,3.71,20.37
		c-6.26-1.34-12.52-2.69-18.71-4.31l-0.21-0.05C136.16,265.1,135.94,258.69,136.45,252.3z"/>
	<path class="st0" d="M352.3,259.48c5.74-1.03,11.51-1.93,17.22-3.14c0.12,6.68-0.35,13.36-1.3,19.98
		c-5.69,1.1-11.38,2.14-17.07,3.17C351.99,272.85,352.42,266.17,352.3,259.48z"/>
	<path class="st0" d="M175.56,266.91c-0.04-2.35-0.07-4.7-0.08-7.05c8.58,1.11,17.2,1.95,25.77,3.12
		c-0.21,5.24,0.44,10.44,0.74,15.67c-1.16,1.26-2.25,2.58-3.26,3.97c-5.93-0.66-11.84-1.42-17.76-2.17
		c-2.44-3.56-1.08-7.72-0.81-11.65C179.23,267.11,177.16,267.32,175.56,266.91z"/>
	<path class="st0" d="M264.1,260.24c2.48,0.74,4.96,1.59,7.08,3.13c-2.42,0.12-4.85,0.1-7.27,0.07
		C263.96,262.37,264.03,261.3,264.1,260.24z"/>
	<path class="st0" d="M324.39,263.06c8.55-1.2,17.14-2.22,25.74-3.12c0.11,6.65-0.43,13.29-1.39,19.86
		c-8.34,1.3-17.02,2.87-25.26,0.16C324.18,274.35,324.4,268.7,324.39,263.06z"/>
	<path class="st0" d="M156.19,259.73c5,2.34,6.33,8.09,9.99,11.74c2.15,2.16,5.32,0.68,7.65-0.35c0.15,2.79,0.4,5.58,0.72,8.37
		c-5.65-1.18-11.5-1.64-17-3.45C156.47,270.68,156.31,265.18,156.19,259.73z"/>
	<path class="st0" d="M203.54,262.35c4.63,3.45,4.8,11.26,0.67,15.19C203.92,272.48,203.21,267.42,203.54,262.35z"/>
	<path class="st0" d="M296.07,265.08c8.7-0.93,17.46-1.11,26.17-2c0.06,5.24-0.43,10.46-0.86,15.67c-0.85-0.25-2.53-0.76-3.38-1.02
		c0.67,1.79,1.24,3.62,1.64,5.5c-8.17,1.03-16.41,1.3-24.62,1.81C295.63,278.4,296.08,271.75,296.07,265.08z"/>
	<path class="st0" d="M210.61,263.56c2.93,0.31,5.88,0.44,8.8,0.9c2.78,3.42,3.9,9.64,9.54,9.08c0.15-2.36,0.26-4.72,0.58-7.07
		c0.49,6.2,0.73,12.44,0.85,18.66c-3.54-0.39-7.12-0.35-10.64-0.8c-1.31-0.24-1.56-2.05-2.92-2.2c-1.6-0.82-4.34-0.23-4.89-2.4
		C209.91,274.62,208.8,268.91,210.61,263.56z"/>
	<path class="st0" d="M231.83,265.02c6.03,0.16,12.05,0.41,18.08,0.67c-1.42,2.6-3.97,4.22-5.91,6.38
		c-3.73,3.94-6.59,8.81-11.3,11.73C232.41,277.54,231.88,271.29,231.83,265.02z"/>
	<path class="st0" d="M252.05,265.63c3.22-0.04,6.44-0.04,9.67,0.01c-0.49,6.51,0.76,13.36-0.62,19.67
		c-3.84,1.04-7.97,0.2-11.92,0.31c0.91-3.55,3.28-6.51,6.77-7.78C253.44,274.24,252.54,269.91,252.05,265.63z"/>
	<path class="st0" d="M263.93,265.62c9.97,0.13,19.93-0.21,29.89-0.59c-0.14,6.75-0.53,13.48-0.93,20.22
		c-3.22,0.14-6.43,0.23-9.64,0.31c-0.42-0.71-1.25-2.13-1.66-2.84c-0.93,0.9-1.84,1.82-2.73,2.75c-4.96,0.32-9.93,0.31-14.89,0.25
		C263.95,279.02,264.02,272.32,263.93,265.62z"/>
	<path class="st0" d="M136.64,273.94c6.23,1.69,12.58,2.92,18.89,4.3c1.17,6.76,2.79,13.44,4.92,19.97
		c-6.84-1.25-13.67-2.58-20.46-4.08l-0.13-0.03C138.4,287.45,137.2,280.73,136.64,273.94z"/>
	<path class="st0" d="M370.14,278.25c6.34-1.35,12.67-2.79,19-4.24c-0.69,6.79-1.96,13.49-3.34,20.17c-6.85,1.38-13.69,2.78-20.57,4
		C367.34,291.66,369.05,285.02,370.14,278.25z"/>
	<path class="st0" d="M157.96,278.62c5.55,1.3,11.22,2.09,16.81,3.22c1.62,6.47,2.84,13.07,4.82,19.47
		c-5.48-1.06-11.09-1.51-16.53-2.78C160.55,292.15,159.13,285.36,157.96,278.62z"/>
	<path class="st0" d="M177,279.14"/>
	<path class="st0" d="M359.26,280.26c2.82-0.5,5.65-0.98,8.48-1.41c-1.33,6.64-2.52,13.42-5.19,19.66
		c-5.44,1.39-11.1,1.71-16.59,2.85c2.3-6.46,3.27-13.28,5.16-19.85c2.28-0.22,4.55-0.57,6.82-0.94c-1.79,2.06-4.19,4.32-3.45,7.35
		c1.81,2.31,3.02-2.98,5.13-1.75c1.68,0.6,3.26,1.43,4.91,2.15C363.29,285.32,361.36,282.7,359.26,280.26z"/>
	<path class="st0" d="M177.23,282.19c7.6,1.1,15.24,1.94,22.86,2.93c1.47,2.98,3.63,5.68,4.33,8.99c0.72,3.33,1.42,6.67,2.24,9.99
		c-8.21-0.68-16.41-1.48-24.58-2.59C180.03,295.19,178.49,288.71,177.23,282.19z"/>
	<g>
		<path class="st0" d="M333.23,284.3c5.06-0.77,10.15-1.38,15.21-2.19c-1.18,6.56-2.85,13.03-4.87,19.39
			c-6.27,0.82-12.54,1.62-18.84,2.06c0.56-5.49-0.39-11.03-2.45-16.13c3.17-0.65,6.38-1.1,9.59-1.46
			C332.21,285.55,332.89,284.72,333.23,284.3z M337.84,291.36c0.03,1.92,2.83,2.73,4.33,1.9c2.38-2.1,3.59-5.25,3.31-8.41
			C343.26,287.39,340.69,289.56,337.84,291.36z"/>
	</g>
	<path class="st0" d="M302.25,287.07c5.26-0.51,10.53-0.89,15.82-1.14c-0.99,1.23-2.62,2.13-3.11,3.66c1.32,1.41,2.8,2.66,4.2,4
		c-0.47,2.06-0.92,4.13-1.32,6.22c-3.02-4.37-8.44-4.98-12.85-7.15C302.77,291.71,302.75,289.07,302.25,287.07z"/>
	<path class="st0" d="M218.57,287.01c4.14-0.12,8.27,0.12,12.4,0.45c0.36,6.11,1.41,12.16,2.39,18.2c-2.67-0.06-5.33-0.17-7.99-0.2
		C225.42,298.63,220.36,293.35,218.57,287.01z"/>
	<path class="st0" d="M294.9,287.35c2.11-0.12,4.22-0.24,6.35-0.26c-2,1.75-4.47,2.73-6.98,3.5
		C294.47,289.51,294.68,288.43,294.9,287.35z"/>
	<path class="st0" d="M249.04,288.08c2.55,0.07,5.1,0.12,7.66,0.15c-2.15,5.91,0.06,12.1,2.68,17.48c0.75-0.1,2.26-0.3,3.01-0.41
		c-1.13,1.43-3.07,0.97-4.64,1.12c-7.4-0.07-14.8-0.44-22.21-0.37c-0.72-5.49-1.55-10.97-2.31-16.45c2.75,2.71,4.7,6.55,8.55,7.87
		C246.84,297.6,248.35,292.07,249.04,288.08z"/>
	<path class="st0" d="M263.92,288.24c4.68,0,9.36-0.07,14.04-0.13c-1.89,4.06-4.46,8.12-9.13,9.22c-1.59-0.56-3.18-1.11-4.76-1.68
		C263.99,293.18,263.95,290.71,263.92,288.24z"/>
	<path class="st0" d="M284.05,287.66c2.81-0.04,5.62-0.08,8.44-0.13c-0.06,0.84-0.17,2.52-0.23,3.36c-2.31,0.49-4.62,1-6.91,1.55
		C284.91,290.84,284.48,289.25,284.05,287.66z"/>
	<path class="st0" d="M263.98,302.82c5.02-3.58,10.47-7.28,16.81-7.71c5.33,0.31,10.63,4.99,9.66,10.7
		c-8.81,0.44-17.64,0.52-26.46,0.62C263.99,305.53,263.98,303.72,263.98,302.82z"/>
	<path class="st0" d="M209.14,304.42c-0.91-3.07-1.72-6.18-1.97-9.37c6.28,0.13,8.91,6.47,12.81,10.3
		C216.39,304.79,212.77,304.53,209.14,304.42z"/>
	<path class="st0" d="M140.71,296.45c6.75,1.8,13.68,2.8,20.52,4.19c2.39,6.49,5.13,12.85,8.37,18.97
		c-7.32-1.01-14.54-2.55-21.83-3.69C144.74,309.7,142.53,303.11,140.71,296.45z"/>
	<path class="st0" d="M364.48,300.62c6.85-1.4,13.81-2.33,20.54-4.24c-1.68,6.52-4.14,12.81-6.65,19.06
		c-7.3,2.07-14.88,2.85-22.32,4.23C359.33,313.54,362.04,307.13,364.48,300.62z"/>
	<path class="st0" d="M320.57,297.41c1.17,1.9,1.5,4.13,1.87,6.29c-1.13,0.1-2.26,0.2-3.38,0.31
		C319.52,301.8,319.99,299.59,320.57,297.41z"/>
	<path class="st0" d="M292.97,305.61c0.7-3.16,3.29-5.87,6.75-5.35c5.93,0.91,11.82,3.86,17.89,1.78c-0.43,0.8-0.85,1.6-1.26,2.41
		C308.56,304.94,300.78,305.58,292.97,305.61z"/>
	<path class="st0" d="M345.4,303.5c5.51-0.52,10.95-1.61,16.44-2.4c-2.4,6.59-5.2,13.07-8.8,19.1c-5.16,0.55-10.29,1.39-15.48,1.65
		C340.5,315.88,343.04,309.73,345.4,303.5z"/>
	<path class="st0" d="M163.82,301.1c5.51,0.78,10.98,1.85,16.53,2.4c2.28,6.28,4.78,12.49,7.9,18.41
		c-5.22-0.58-10.53-0.74-15.63-1.99C168.71,314.18,166.39,307.51,163.82,301.1z"/>
	<path class="st0" d="M182.89,304.05c8.09,0.74,16.16,1.86,24.28,2.35c1.86,6.05,3.69,12.13,6.08,18.01
		c-7.41-0.63-14.82-1.3-22.22-1.97C187.91,316.5,185.28,310.31,182.89,304.05z"/>
	<path class="st0" d="M324.18,306.05c6.19-0.69,12.38-1.39,18.57-2.08c-2.29,6.33-4.96,12.52-8.11,18.46
		c-7.39,0.73-14.78,1.4-22.17,1.94c2.3-5.88,4.22-11.9,6.02-17.95c0.89-0.08,2.67-0.23,3.57-0.31c0.08,0.93,0.25,2.78,0.33,3.71
		C323,308.57,323.59,307.31,324.18,306.05z"/>
	<path class="st0" d="M209.69,306.67c8.01,0.78,16.06,0.86,24.07,1.6c0.95,5.81,2.11,11.58,3.56,17.28
		c-7.22-0.23-14.44-0.42-21.64-1.03C213.44,318.65,211.33,312.73,209.69,306.67z"/>
	<path class="st0" d="M292.44,308.23c7.86-0.7,15.76-0.79,23.62-1.58c-1.74,6-3.81,11.89-5.95,17.76c-3.2,0.23-6.41,0.53-9.6,0.9
		c0.03-1.57,1.3-3.66-0.38-4.81c-2.17-1.85-5.32-2.6-6.74-5.24C291.89,313.2,292.37,310.59,292.44,308.23z"/>
	<path class="st0" d="M235.93,308.16c8.67,0.26,17.33,0.56,26.01,0.61c0.28,3.85-4.92,4.04-5.68,7.39c-0.68,2.1,0.35,4.19,0.93,6.17
		c-5.05,3.65-11.7,3.29-17.63,3.41C238.25,319.9,237.08,314.03,235.93,308.16z"/>
	<path class="st0" d="M263.37,309.98c1.36-1.58,3.54-1.16,5.4-1.28c7.16,0.03,14.31-0.61,21.48-0.32
		c-2.35,5.08-6.68,9.37-12.07,11.06c-2.47,0.55-5.34,1.07-7.56-0.46c-1.15-2.39-1.44-5.09-2.53-7.5
		C266.72,310.51,264.91,310.5,263.37,309.98z"/>
	<path class="st0" d="M108.8,318.5c2.93-2.15,5.89-4.28,8.87-6.38c0.64,2.15,1.32,4.3,1.97,6.45
		C116.02,318.59,112.41,318.61,108.8,318.5z"/>
	<path class="st0" d="M148.77,318.27c7.2,1.62,14.61,2.24,21.77,4c4.19,5.32,7.21,11.58,11.51,16.9
		c-7.66-0.82-15.25-2.12-22.88-3.07C155.45,330.3,151.82,324.44,148.77,318.27z"/>
	<path class="st0" d="M355.06,322.34c7.13-1.9,14.59-2.24,21.73-4.16c-2.76,6.3-6.39,12.19-10.32,17.83
		c-7.6,1.18-15.19,2.38-22.85,3.09C347.86,333.8,351.01,327.71,355.06,322.34z"/>
	<path class="st0" d="M173.73,322.59c5.13,0.65,10.3,1.09,15.4,1.97c3.9,5.22,6.75,11.25,10.72,16.49
		c-4.36-0.68-8.78-0.66-13.12-1.4c-1.06-0.03-1.88-0.49-2.44-1.37C180.37,333.33,177.03,327.96,173.73,322.59z"/>
	<path class="st0" d="M336.12,324.51c5.29-0.53,10.56-1.29,15.83-2c-3.45,5.9-7.3,11.57-11.46,16.99
		c-4.85,0.69-9.74,1.06-14.62,1.34C329.76,335.71,333.01,330.14,336.12,324.51z"/>
	<g>
		<path class="st0" d="M192.24,324.9c7.28,0.53,14.53,1.33,21.81,1.81c0.91,2.08,1.73,4.21,2.85,6.19c0.52,1.36,1.34,1.63,2.45,0.81
			c-0.13-2.45-1.95-4.44-2.66-6.74c6.34,0.43,12.7,0.34,19.03,1.02c2.7,0.32,5.42,0.08,8.09-0.39c17.74-3.15,36.09-1.41,53.41,3.26
			c0.4-1.15,0.81-2.28,1.22-3.42c3.49-0.11,6.99-0.28,10.48-0.5c-0.79,2.69-3.73,5.68-1.42,8.39c1.49-2.8,2.8-5.7,4.09-8.6
			c7.26-0.47,14.48-1.31,21.73-1.83c-3.19,5.66-6.5,11.31-10.69,16.3l-0.62,0.75c-1.1-1-2.13-2.03-3.29-2.93
			c-3.22-1.5-6.66-2.42-10.06-3.43c-2.3,6.71-2.82,14.38-7.38,20.08c-0.79-0.44-2.38-1.32-3.18-1.76c0.9-6.94,3.78-13.39,5.46-20.15
			c-3.55-1.05-7.1-2.08-10.73-2.82c-1.32,6.77-4.14,13.15-5.39,19.92c-0.9,4.24,1.64,8.11,4.65,10.82
			c-0.72,0.12-2.15,0.37-2.87,0.49c-2.16,2.91-4.07,6.06-6.73,8.54c-2.77,0.67-5.65,0.37-8.46,0.48c0.85-2.17,1.71-4.34,2.58-6.5
			c0.63,0.32,1.89,0.97,2.51,1.29c-0.39-1.81-0.79-3.62-1.17-5.42c1.07-0.16,3.22-0.47,4.3-0.62c-12.81-2.19-26.12-2.32-38.86,0.34
			c1.22,4.06,3.35,7.73,5.94,11.07c-2.06-0.27-4.24-0.05-6.19-0.83c-3.13-2.55-4.51-6.86-8.25-8.71c-0.01,3.72,3.28,6.16,5.24,8.97
			c-3.03-0.09-6.05-0.17-9.08-0.23c-2.24-1.69-4.36-4.48-7.52-3.8c1.16,1.27,2.37,2.55,3.57,3.81c-3.54-0.19-7.09-0.49-10.63-0.24
			c1.78-1.89,4.21-2.9,6.62-3.72c3.97-1.32,8.3-3.23,10.08-7.32c2.58-4.71,0.8-11.72-4.49-13.64c-3.23-0.63-6.53-0.08-9.78-0.01
			c0.1-0.6,0.32-1.8,0.42-2.4c2.6-0.09,5.21-0.11,7.82-0.08c0.04-2.98,0.11-5.95,0.16-8.92c-4.55-0.06-9.3,0.24-13.32,2.58
			c-3.49,1.74-6.98,3.46-10.53,5.07C199.24,336.54,195.69,330.74,192.24,324.9z M254.05,327.97c0.2,9.87,0.34,19.74,0.41,29.61
			c3.63-0.02,7.27-0.06,10.91-0.13c-0.22-9.96-0.29-19.93-0.33-29.89C261.37,327.63,257.7,327.69,254.05,327.97z"/>
	</g>
	<path class="st0" d="M161.34,338.61c7.48,1.27,15.02,2.13,22.55,3.06c2.33,2.65,4.62,5.34,6.91,8.04
		c-1.88,1.52-3.76,3.04-5.59,4.62c-3.92-0.47-7.85-0.85-11.75-1.42C169.06,348.47,164.71,343.9,161.34,338.61z"/>
	<path class="st0" d="M344.67,341.3c6.68-0.82,13.37-1.6,20.02-2.74c-3.77,5.15-8.06,9.86-12.4,14.52
		c-3.41,0.23-6.81,0.62-10.19,1.13c-2.25-1.76-4.54-3.48-6.88-5.11C338.23,346.39,340.08,341.46,344.67,341.3z"/>
	<path class="st0" d="M402.09,338.58c2.1,1.06,4.18,2.16,6.27,3.25c-1.36,2.51-2.5,5.18-4.24,7.46c-1.99,2.78-7.28-0.21-5.72-3.39
		C399.4,343.35,400.84,341.01,402.09,338.58z"/>
	<path class="st0" d="M187.22,342.09c4.53,0.32,9.04,1.04,13.6,1.03c-2.57,1.93-5.32,3.61-8.09,5.23
		C190.91,346.24,189.06,344.17,187.22,342.09z"/>
	<path class="st0" d="M325.73,343.12c4.21-0.11,8.39-0.7,12.59-1c-1.59,1.92-3.2,3.83-4.81,5.74
		C330.86,346.36,328.25,344.81,325.73,343.12z"/>
	<path class="st0" d="M314.68,353.58c0.54,0.85,1.14,1.68,1.79,2.46c-1.15,1.28-2.14,2.71-2.56,4.4c-0.8,0.92-1.62,1.82-2.43,2.73
		c1.24,0.13,2.48,0.26,3.73,0.39c-1.41,0.76-2.8,1.53-4.18,2.32c1.5,0.33,3,0.66,4.51,1c-1.26,0.24-2.52,0.48-3.77,0.72
		c-0.47,0.46-1.41,1.39-1.88,1.85c-3.03-1.4-6.11-2.7-9.21-3.95c-1.46,1.25-2.9,2.51-4.31,3.79c-0.55,0.01-1.64,0.04-2.19,0.05
		c-0.42,0.31-1.28,0.93-1.71,1.24c-2.3,0.05-4.61,0.12-6.91,0.18c2.35-2.9,4.6-5.88,6.53-9.08c4.65,2.51,10.45,4.91,15.55,2.22
		C311.85,362.2,313.81,357.74,314.68,353.58z"/>
	<path class="st0" d="M215,355.35c2.79,0.04,5.58-0.12,8.37-0.17c-0.06,0.55-0.18,1.65-0.24,2.21c-2.37,0.37-4.75,0.72-7.15,0.83
		c-0.81-0.97-1.61-1.93-2.42-2.89L215,355.35z"/>
	<path class="st0" d="M344.54,356.36c1.82-0.36,3.66-0.68,5.47-1.13c-1.02,0.91-1.99,1.9-3.18,2.59
		C346.04,357.36,345.28,356.87,344.54,356.36z"/>
	<path class="st0" d="M176.33,355.49c2,0.34,4.02,0.64,6.04,0.9c-0.53,0.57-1.57,1.69-2.1,2.25
		C178.47,358.61,177.57,356.51,176.33,355.49z"/>
	<path class="st0" d="M264.02,360.45c1.85-0.01,3.7-0.02,5.55-0.04c-0.05,0.64-0.17,1.92-0.23,2.56c1.65,0.55,3.31,1.08,4.97,1.62
		c-0.89,2.09-1.62,4.27-2.77,6.25c-2.42,0.72-5.04,0.24-7.53,0.37C263.95,367.62,263.96,364.03,264.02,360.45z"/>
	<path class="st0" d="M246.89,360.97c0.26,0.13,0.76,0.4,1.01,0.54c1.44,3.34,2.77,6.74,3.88,10.2
		C249.09,368.92,246.69,364.88,246.89,360.97z"/>
	<path class="st0" d="M249.98,360.49c3.9-0.04,7.81-0.02,11.71,0c-0.03,3.59-0.02,7.19,0,10.78c-2.92,0.14-5.77-0.43-8.36-1.74
		C252.24,366.5,251.06,363.51,249.98,360.49z"/>
	<path class="st0" d="M299.6,380.62c4.54-3.39,8.48-8.18,14.35-9.16l0.78-0.22c1.62,1.86,5.92,2.32,5.68,5.11
		c-1.76,1.16-3.68,2.09-5.68,2.77C309.71,379.83,304.65,380.19,299.6,380.62z"/>
	<path class="st0" d="M205.59,376.76c2.14-1.99,4.55-3.73,7.34-4.71c1.83,0.05,3.72,0.31,5.26,1.4c3.89,2.49,7.75,5.05,11.74,7.4
		c-6.36-0.44-12.74-0.82-19.05-1.82C209.05,378.42,207.33,377.55,205.59,376.76z"/>
	<path class="st0" d="M221.44,372.69c3.36,0.19,7.37-1,10.22,1.35c3.29,2.58,6.64,5.1,10.09,7.48c-3.06,0.37-6.18-0.05-8.63-2.03
		C229.52,376.69,224.9,375.69,221.44,372.69z"/>
	<path class="st0" d="M233.98,373.04c2.77,0.01,5.54,0.1,8.3,0.26c2.04,3.15,5.84,5.42,6.28,9.41
		C243.12,380.45,238.69,376.47,233.98,373.04z"/>
	<path class="st0" d="M245.32,373.24c0.85,0.04,2.54,0.14,3.39,0.18c-0.53,0.73-0.47,2.03-1.5,2.32
		C246.56,374.91,245.93,374.08,245.32,373.24z"/>
	<path class="st0" d="M255.94,373.46c1.89-0.09,3.78-0.15,5.68-0.2c0.02,3.01,0.04,6.01,0.1,9.03c-0.72-0.03-2.16-0.08-2.88-0.11
		C257.52,379.4,256.28,376.54,255.94,373.46z"/>
	<path class="st0" d="M263.93,373.3c2.2,0.01,4.4,0.03,6.61,0.08c-1.71,3.2-3.71,6.26-6.3,8.84
		C263.91,379.25,263.91,376.27,263.93,373.3z"/>
	<path class="st0" d="M275.78,373.35c1.64-0.02,3.28-0.03,4.93-0.03c-0.97,1.09-1.95,2.18-2.93,3.27
		C277.1,375.5,276.45,374.43,275.78,373.35z"/>
	<path class="st0" d="M283.43,373.33c2.75-0.17,5.49-0.27,8.25-0.29c-3,2.26-5.88,4.75-9.19,6.55c-1.22,0.69-2.32-0.77-3.44-1.08
		C280.53,376.8,282,375.08,283.43,373.33z"/>
	<path class="st0" d="M296.87,383.36c3.3-0.71,6.7-0.73,10.05-1.14c-4.78,2.15-9.83,3.7-15,4.51
		C293.55,385.6,294.99,384.1,296.87,383.36z"/>
	<path class="st0" d="M271.2,419.41c0.62-0.06,1.85-0.17,2.47-0.23c1.86,4,2.63,9.41-0.94,12.72
		C269.47,428.54,269.93,423.54,271.2,419.41z"/>
	<path class="st0" d="M259.68,431.8c-2.34-3.72-2.5-8.94-0.07-12.64c1.51-0.13,2.43,0.5,2.76,1.89
		C263.24,424.71,263.33,429.57,259.68,431.8z"/>
	<path class="st0" d="M244.96,495.43c3.4-1.03,7.39-1.25,10.47,0.8c1.04,3.01-2.48,3.8-4.71,4.04c-2.54,0.31-4.93-0.8-7.28-1.57
		C243.91,497.59,244.25,496.41,244.96,495.43z"/>
	<path class="st0" d="M270.61,495.74c3.6-1.89,8.62-2.03,11.68,0.98c0.24,1.81-1.84,2.34-3.12,2.84c-3.14,1.17-6.39-0.03-9.39-1
		C270,497.6,270.28,496.66,270.61,495.74z"/>
	<g>
		<g>
			<path class="st1" d="M204.52,19.6c6.64-1.6,13.28-3.69,20.18-3.69c5.34,0.02,10.68-0.07,16.02,0.07
				c-1.76,1.85-3.28,4.35-5.96,4.91c-4.94,1.28-10.1,1.6-14.95,3.27c-6.54,2.01-11.09,7.44-16.78,10.92
				c-6.27,3.93-13,7.59-20.43,8.56c-4.82,0.85-10.43,2.63-11.98,7.87c5.92,0.01,10.63-4.04,16.15-5.55
				c10.54-3.09,21.57-4.23,31.89-8.14c-7.2,8.59-15.46,17.52-26.92,19.91c-9.91,1.67-20.07-0.21-30.01,1.17
				c-2.3,0.3-4.48,1.24-6.34,2.62c-9.61,7.27-18.21,15.76-27.72,23.15c1.3-0.31,2.81-0.14,3.96-0.91c4.63-3.32,8.2-7.91,12.91-11.12
				c1.52-1.49,4.63-0.13,3.93,2.16c-1.72,4.99-5.75,8.75-9.11,12.7c-7.62,8.33-14.29,17.94-24.05,23.96
				c-5.58,3.41-12.46,4.18-17.65,8.3c-4.08,3.03-6.07,7.86-9.33,11.62c-8.37,9.7-17.41,19.19-22.93,30.9
				c4.04-0.43,6.84-3.54,9.5-6.28c3.34-3.52,5.38-7.98,8-12.01c5.1-7.99,10.87-15.74,18.35-21.68c3.32-2.63,6.73-5.41,10.92-6.5
				c-4.11,5.38-9.57,9.9-11.99,16.41c-4.04,8.76-5.38,19.46-13.27,25.89c-5.03,4.52-12.42,4.31-17.72,8.33
				c-3.78,3.35-6.85,7.56-8.64,12.3c1.6-0.31,3.88,0.52,4.82-1.26c3.02-4.64,5.83-10.25,11.43-12.18c0.36,0.06,1.07,0.19,1.42,0.25
				c-1.1,5.42-5.38,9.37-7.35,14.42c-2.81,7.16-4.05,14.82-6.81,21.99c-2.46,6.16-7.96,10.18-12.43,14.8
				c-3,2.96-3.59,7.33-4.64,11.21c-1.69,6.46-1.56,13.17-1.81,19.79c1.83-9.81,3.91-19.82,8.96-28.56c2.09-3.32,4.76-6.36,8.12-8.44
				c0.19,5.76-4.24,10.36-4.13,16.09c-0.16,5.31,0.32,10.62,0.14,15.93c-0.15,7.58-2.37,15.05-6.02,21.67
				c-3.28,5.79-4.53,12.43-5.93,18.86c-2.13,10.75,0.4,21.59,2.61,32.1c2.43-4.12,2.65-9.04,3.21-13.66
				c0.47-9.78-1.1-19.5-2.12-29.19c2.73,4.71,3.66,10.17,5.62,15.2c4.43,12.24,8.29,24.96,8.47,38.08c0.2,5.73-1.88,11.27-1.56,17
				c0.32,5.54,1.54,11.11,4.18,16.04c2.44,4.43,3.84,9.33,6.27,13.77c0.35-0.43,0.71-0.85,1.07-1.27
				c-1.75-4.41-2.25-9.25-4.52-13.47c-3.63-7.86-6.73-17.05-3.32-25.55c5.18,8.21,10.87,16.27,14.11,25.5
				c2.74,8.44-2.27,16.61-2.3,25.02c-0.36,6.32,2.86,12.62,7.76,16.51c-0.1-4.99-2.62-9.51-2.81-14.47
				c-0.14-4.79-0.62-9.84,1.65-14.25c0.44-0.13,1.34-0.39,1.79-0.53c1.11,5.29,1.34,11.05,4.46,15.67
				c3.72,5.81,8.62,10.85,11.87,16.96c2.36,4.8,2.39,10.25,2.4,15.47c5.18,4.91,9.19,10.93,14.72,15.5c2.86,2.44,5.35,5.42,8.8,7.09
				c-1.55-4.06-4.63-7.19-7.6-10.25c-6.33-6.5-11-14.48-14.17-22.95c-0.81-2.58-2.07-5.61-0.17-8.04c1.75,1.39,2.73,3.47,4.12,5.18
				c3.11,4.2,7.41,7.25,10.99,11.01c4.09,4.56,7.26,9.91,9.49,15.6c4.78-0.88,9.23,1.46,13.42,3.43c6.06,2.81,9.1,9.07,12.78,14.27
				c2.51,3.41,4.97,6.96,8.26,9.67c9.48,6.7,19.43,13.45,30.91,16.07c-5.65-5.99-12.96-10.03-20.35-13.46
				c-2.76-1.24-5.59-2.39-8.05-4.18c5.13-0.26,10.26,0.33,15.38,0.71c8.06,0.85,16.59,1.03,23.84,5.08
				c7.25,3.81,12.52,10.23,18.23,15.92c1.68,1.6,3.42,3.83,6.06,3.43c4.51,0.18,7.7-3.78,11.97-4.58c4.31-0.75,8.81-0.42,12.92,1.11
				c7.59,2.63,15.51-0.36,23.09-1.4c6.2-0.54,10.79,6.44,17.03,4.5c3.4-0.06,4.07-3.86,6.09-5.86c5.21-5.5,10.76-11.15,17.96-13.95
				c5.99-2.29,12.39-3.34,18.77-3.78c5.85-0.41,11.73-1.28,17.59-0.56c-7.46,3.51-14.68,7.52-21.68,11.87
				c-2.3,1.38-4.25,3.23-6.05,5.19c1.72-0.1,3.49-0.26,5.02-1.15c6.97-3.63,13.87-7.4,20.59-11.46c4.89-2.9,9.12-6.95,12.18-11.75
				c3.34-5.21,7.38-9.96,11.91-14.18c3.74-3.58,9.05-4.42,13.78-5.99c0.76,0.16,1.52,0.33,2.3,0.51c1.68-6.32,5.44-11.9,10.11-16.41
				c2.36-2.29,5.32-3.86,7.66-6.17c2.28-2.55,3.97-5.56,5.81-8.43c0.37-0.17,1.12-0.5,1.49-0.67c-0.8,5.75-1.61,11.68-4.26,16.91
				c-5.09,8.63-12.37,15.69-18.22,23.74c1.66,1.25,3.49-1.08,4.8-2.03c5.91-6.09,11.16-12.8,16.95-19c2.78-2.58,1.39-6.68,2.16-9.97
				c0.5-6.89,4.96-12.55,9.48-17.4c5.55-5.76,6.45-14.04,8.81-21.31c2.61,3.34,2.88,7.76,3.18,11.83
				c0.41,6.46-2.18,12.55-3.01,18.88c5.07-6.37,9.39-14.54,7.54-22.92c-0.46-6.4-3.99-12.51-2.52-19c1.73-6.64,6.25-11.99,9.65-17.8
				c1.77-2.89,2.62-6.48,5.46-8.58c2.49,6.55,1.71,13.91-1.02,20.25c-2.59,6.7-6.99,12.93-7.24,20.34
				c3.28-3.44,4.59-8.16,6.41-12.44c2.28-6.76,5.32-13.56,5-20.84c-0.25-7.94-2.33-15.86-1.22-23.82
				c1.47-6.48,3.42-12.84,5.43-19.18c2.34-8.14,4.27-16.52,8.14-24.12c-0.11,2.07-0.25,4.15-0.66,6.18
				c-2.06,8.87-1.34,18.03-1,27.04c0.05,3.44,0.84,7.02,3.28,9.6c1.96-12.55,4.28-25.6,0.93-38.13c-2.45-8.25-5.73-16.23-9.2-24.1
				c-3.83-10.63-0.33-22.05-2.22-32.92c-0.5-3.33-5.35-6.3-2.48-9.53c3.42,3.36,7.25,6.55,9.39,10.95
				c4.59,9.06,5.89,19.29,8.02,29.11c-0.43-8.47-1.09-16.98-3.06-25.25c-0.82-3.41-2.38-6.66-4.83-9.2
				c-4.74-5.03-9.91-9.97-12.67-16.44c-2.91-6.37-3.8-13.38-5.78-20.04c-1.49-5.67-8.21-8.45-8.13-14.79
				c3.6,0.87,7.25,2.39,9.43,5.55c2.54,3.17,3.68,8.44,8.62,8.52c-1.13-6.39-6.1-11.3-11.29-14.78c-6.04-3.28-14.05-3.82-18.27-9.86
				c-4.85-7.7-7.56-16.46-11.38-24.66c-2.51-5.39-6.86-9.52-10.81-13.82c5.1,1.65,9.53,4.81,13.84,7.92
				c11.4,9.14,16.27,23.55,25.56,34.44c1.98,2.53,5.15,3.27,8.19,3.55c-3-4.26-5.93-8.57-8.95-12.81c-5.3-6.7-10.94-13.13-16-20.02
				c-3.61-4.69-7.41-9.47-12.56-12.57c-3.49-2.3-7.99-2.1-11.5-4.35c-4.23-2.65-7.85-6.14-11.37-9.65
				c-6.46-6.59-13.09-13.09-18.55-20.56c-2.28-2.86-4.25-6.05-4.94-9.69c1.58,0.16,3.42-0.24,4.65,1.03
				c5.28,4.38,10.31,9.24,16.6,12.17c-0.61-1.79-1.98-3.13-3.41-4.28c-8.78-7.28-17.62-14.54-27.15-20.83
				c-3.26-2.52-7.52-1.97-11.36-2.23c-7.66-0.44-15.36,0.07-22.97-1c-7.03-1.36-12.78-5.98-18.13-10.45
				c-3.07-2.66-6.42-5.2-8.37-8.86c9.66,2.6,19.35,5.1,29.06,7.5c6.49,1.48,12.18,5.48,18.85,6.24c0.02-0.62,0.06-1.85,0.09-2.46
				c-4.64-3.39-9.89-6.21-15.71-6.68c-9.62-0.89-17.11-7.64-24.3-13.42c-6.06-5.04-14.07-6.2-21.52-7.79
				c-3.32-0.67-6.27-2.5-8.35-5.16c8.46-0.44,16.99-0.48,25.4,0.69c7.07,1.01,13.53,4.19,20.08,6.82
				c12.22,4.81,19.75,16.22,29.37,24.52c8.65,7.04,17.41,13.94,26.56,20.32c-3.11-5.09-8.71-7.94-11.84-12.99
				c-4.34-6.63-8.29-13.58-13.53-19.57c-3.82-4.26-7.67-8.81-13.1-11.04c-0.13-0.42-0.38-1.25-0.51-1.67
				c12.82-0.98,23.44,8.08,31.24,17.23c7.05,9.74,11.32,21.09,16.19,31.99c1.51,3.31,4.29,5.79,7.3,7.71
				c-4.59-7.33-7.92-15.53-8.49-24.24c-0.26-6.18-2.17-12.14-4.78-17.71c-1.54-3.28-4.21-5.86-5.69-9.17
				c5.42,0.93,9.55,4.91,13.19,8.75c5.43,5.51,9.33,12.45,11.19,19.96c2.08,8.49,4.59,16.9,6.03,25.53c0.53,2.93,0.9,6.01,2.56,8.56
				c4.62,7.49,9.39,15.11,16.14,20.89c-4.08-8.68-8.53-17.4-9.9-27.02c-0.73-6.44-0.07-12.97,1.39-19.27
				c0.93-0.04,1.86-0.09,2.8-0.13c2.37,7.79,3.67,16.09,8.04,23.11c2.75,5.01,6.17,9.8,7.61,15.41c1.15,7.28-2.09,15.03,0.84,22.07
				c5.46,8.56,10.97,17.11,16.48,25.64c2.42,3.53,4.34,7.4,7.21,10.6c-0.4-7.24-3.77-13.75-6.8-20.17
				c-3.78-7.72-5.39-16.24-7.01-24.61c-0.78-5.19-2-10.52-1.02-15.77c0.18-1.78,1.67-2.88,2.87-4.01c1.73,2.67,3.29,5.46,4.55,8.4
				c3.6,8.52,7.07,17.11,9.95,25.91c2.67,9.39,2.7,19.27,2.65,28.96c-0.02,5.33-1.42,10.58-1.11,15.92
				c0.44,12.1,4.93,23.47,8.62,34.83c0.87,2.31,1.08,5.21,3.42,6.59c0.1-5.49-0.72-10.94-1.09-16.41
				c-0.52-7.12-3.95-13.72-3.9-20.91c-0.05-6.16,0.48-12.95,4.95-17.66c0.99-0.07,1.98-0.14,2.97-0.2c0.11,5.76-0.14,11.7,1.85,17.2
				c1.99,6.22,5.02,12.17,5.93,18.69c0.84,11.65-7.43,21.46-7.42,32.98c-0.07,10.71-0.55,21.43,0.07,32.12
				c1.68-2.83,3.64-5.78,3.63-9.2c0.09-9.59-1.68-19.54,1.53-28.83c1.79-5.57,5.73-10.2,7.19-15.9c1.71-6.85,1.45-14.05,3.31-20.86
				c0.34-1.45,2.57-1.35,3.04,0c2.15,3.43,1.94,7.74,2.2,11.64c-0.05,8.01,0.36,16.09-0.81,24.05c-1.51,7.23-6.28,13.13-9.36,19.7
				c-2.38,4.76-2.79,10.15-4.26,15.2c-1.96,7.73-7.38,14.32-7.77,22.49c-0.23,6.82-1.38,13.67-0.54,20.48
				c0.39-5.83,1.46-11.59,2.16-17.39c0.42-4.32,3.2-7.79,4.82-11.68c3.19-7.59,5.59-15.49,7.29-23.54c0.7-3.49,1.72-6.91,3.44-10.03
				c2.05,5.67,1.44,11.77,1.22,17.68c-0.37,7-0.46,14.04-1.22,21.02c-0.92,8.76-4.28,17.24-9.56,24.29
				c-7.87,9.78-13.19,21.29-18.26,32.68c-3.58,8.55-8.08,16.71-11.28,25.41c1.98-1.13,4.06-2.29,5.37-4.23
				c6.39-9.4,8.69-20.71,12.99-31.07c3.19-8.06,10.15-15.32,19.14-16.25c-1.79,4.62-4.89,8.59-6.6,13.25
				c-1.91,4.93-3.41,10.04-4.16,15.29c-0.93,5.22-1.48,10.9-4.97,15.15c-6.63,7.48-17.03,9.29-24.72,15.24
				c-4.92,3.69-6.41,10.27-5.35,16.09c5.91,0.32,11.03-3.4,15.45-6.88c4.89-5.37,9.74-11.06,12.51-17.87
				c0.4-0.88,0.92-1.68,1.56-2.39c3.49,14.43-4.98,29.42-17.07,37.03c-8.52,5.03-17.67,8.9-26.05,14.18
				c-7.74,4.32-15.63,8.67-21.92,15.03c-4.88,5.04-9.91,10.02-13.91,15.82c5.1-4.27,9.47-9.88,15.92-12.17
				c7.68-2.36,15.04-5.79,21.98-9.81c6-3.98,12.55-9.31,20.27-7.55c-3.78,4.92-8.07,9.44-11.51,14.63
				c-4.98,7.63-11.88,14.34-20.52,17.57c-9.61,3.72-20.29,1.87-30.04,4.87c-8.07,3.25-13.92,10.09-21.37,14.39
				c-6.2,3.47-13.5,3.56-20.4,4.14c-0.04,0.51-0.11,1.52-0.15,2.03c7.96,1.87,17.5,2.04,23.97-3.71
				c11.55-11.47,31.24-15.01,45.31-6.11c-1.42,0.77-2.88,1.5-4.46,1.86c-6.25,1.45-12.35,3.43-18.38,5.59
				c-7.27,2.58-12.92,8.13-19.83,11.41c-3.1,1.5-6.6,0.37-9.75-0.34c-6.91-1.8-13.91-4.22-21.16-3.28
				c-7.97,1.01-16.61,1.73-23.11,6.96c12.7-1.24,25.47-0.55,38.21-1.27c5.1-0.28,10.21,0.15,15.3,0.52
				c-6.19,8.75-17.1,12.39-27.32,13.58c-13.79,1.26-26.34-6-39.91-6.78c-6.88-0.76-14.54-1.17-20.73,2.39
				c5.6,0.24,11.11-1.06,16.7-1.14c9.28-0.57,18.24,2.97,26.37,7.11c4.89,2.69,10.07,6.91,10.4,12.93
				c-13.62-0.65-27.53-0.17-40.72-4.2c-5.36-1.08-10.15-3.82-14.32-7.28c-1.69,3.17-2.95,6.67-5.36,9.41
				c-3.14,2.61-7.47,3.24-11.44,2.89c-4.34-0.21-7.69-3.5-11.9-4.18c-1.76,0.03-3.44,0.55-5.13,0.97c-2.2-0.63-4.6-1.55-6.82-0.46
				c-2.98,1.31-5.65,3.51-8.98,3.91c-7.62,1.41-15.43-4.2-17.08-11.66c-5.82,2.5-11.03,6.5-17.35,7.71
				c-6.19,1.19-12.5,1.5-18.78,1.78c-6.44,0.31-12.85,0.98-19.3,0.98c2.04-9.02,11.44-13.25,19.13-16.6
				c10.83-4.92,22.87-2.74,34.29-2.33c-5.7-2.35-11.97-3.38-18.11-2.59c-9.79,1.28-19.36,3.81-29.02,5.81
				c-6.53,1.69-13.41,1.78-19.95,0.06c-7.72-1.94-16.32-4.93-20.26-12.46c5.08-0.11,10.16-0.58,15.23-0.25
				c10.98,0.57,22.1-0.79,32.95,1.36c1.77,0.36,3.56,0.13,5.32-0.18c-10.88-5.98-23.93-9.53-36.26-6.44
				c-4.81,0.76-8.95,4.25-14,3.66c-2.82,0.18-5.25-1.41-7.51-2.87c-11.56-7.89-24.98-12.58-38.52-15.73
				c4.66-4.7,11.78-5.48,18.05-6.02c12.43,0.29,22.93,7.8,33.06,14.17c5.39,3.58,13.04,3.6,18.25-0.32
				c-5.99-1.56-12.46-1.06-18.19-3.6c-8.14-3.44-13.8-10.75-21.96-14.11c-12.33-5.7-26.88-3.21-39.02-9.42
				c-11.08-7.53-15.72-21.06-26.02-29.41c2.95-0.02,5.95-0.24,8.85,0.42c3.22,0.86,5.92,2.91,8.55,4.87
				c5.77,4.44,12.41,7.69,19.36,9.82c6.1,1.87,12.17,4.68,16.53,9.48c1.75,1.92,3.63,3.73,5.77,5.22
				c-8.14-12.4-20.05-21.79-32.6-29.43c-7.46-4.95-15.29-9.37-23.62-12.67c-11.23-4.41-19.95-14.36-23.19-25.94
				c-1-4.64-0.7-9.43-0.22-14.11c4.52,7.19,8.97,14.55,14.97,20.63c3.79,3.92,9.1,6.09,14.49,6.5c0-4.02,0.42-8.53-2.22-11.9
				c-2.83-3.8-6.22-7.41-10.59-9.41c-6.17-3.11-12.89-5.89-17.55-11.19c-5.19-7.1-3.68-16.48-6.47-24.46
				c-1.73-6.62-5.9-12.11-9.21-17.97c4.34,0.75,8.58,2.4,12.15,5.01c4.19,3.7,6.44,9,8.61,14.03c3.58,7.61,4.49,16.2,8.72,23.55
				c1.7,3.76,4.77,6.74,8.51,8.46c-2.11-5.99-5.24-11.54-7.87-17.3c-5.22-9.91-9.51-20.28-14.69-30.21
				c-4.98-8.36-11.2-16.1-14.62-25.31c-2.03-5.52-2.22-11.45-2.5-17.25c-0.63-6.98-0.87-13.99-1.1-21c0.15-2.91-0.33-6.32,1.86-8.62
				c0.3,0.24,0.9,0.74,1.2,0.98c3.02,11.44,5.57,23.13,10.58,33.92c2.04,4.72,4.5,9.47,4.72,14.71c0.27,4.75,0.32,9.53,1.13,14.23
				c-0.17-8.66,0.1-17.38-0.97-25.99c-1.19-7.21-5.7-13.23-7.76-20.16c-2.16-6.99-2.55-14.81-7.16-20.81
				c-3.88-5.17-6.41-11.32-6.93-17.79c-0.88-11.23-1.61-23.17,3.3-33.65c5.17,9.07,2.47,20.39,7.23,29.64
				c2.28,5.51,6.66,10.33,6.94,16.53c0.33,7.67-0.21,15.36,0.14,23.04c0.17,3.04,1.04,6.13,3.14,8.42
				c0.39-8.82,0.35-17.65,0.63-26.48c-0.19-5.07,0.43-10.48-1.94-15.17c-3.56-7.77-5.41-16.3-5.51-24.84c0-7.93,6.35-14.07,6.9-21.9
				c0.22-5.08,0.97-10.5-1.42-15.21c7.2,2.87,9.74,11.01,9.95,18.13c0.86,8.7-4.13,16.44-4.81,24.94c-0.32,4.5-0.44,9.03-0.04,13.53
				c3.59-4.81,4.24-11.02,6.08-16.59c1.52-6.37,5.51-12.16,5.35-18.89c0.21-14.44-1.44-28.92,0.09-43.32
				c1.05-5.76,3.23-11.23,5.18-16.72c2.99-8.41,6.1-16.91,11.13-24.35c1.21,0.77,2.75,1.61,2.51,3.33
				c0.56,10.15-1.09,20.34-3.69,30.12c-2.87,10.94-10.54,20.32-11.3,31.83c2.71-3.14,4.68-6.81,6.87-10.3
				c5.39-8.83,11.59-17.13,16.91-26c0.83-1.39,1.57-2.9,1.57-4.56c0.26-6.22-1.47-12.43-0.42-18.62c0.62-3.71,2.81-6.83,4.94-9.83
				c5.89-8.03,7.37-18.16,11.18-27.16c0.16-1.12,1.52-0.42,2.21-0.7c5.12,15.52-0.95,31.85-8.51,45.46
				c5.58-4.66,9.98-10.51,14.47-16.17c3.89-4.79,4.76-11.09,5.31-17.03c1.32-13.34,5.38-26.58,12.97-37.72
				c4.01-5.5,9.28-11.1,16.42-11.96c-3.08,4.64-5.65,9.59-7.96,14.65c-3.07,6.61-1.47,14.18-3.58,21.03
				c-1.53,5.41-4.99,9.97-7.13,15.12c2.37-2.03,4.63-4.24,6.33-6.87c3.57-5.24,4.65-11.66,7.69-17.18
				c6.36-12.5,14.74-25.26,28.09-31.04c4.1-2,8.75-1.66,13.07-0.69c-11.85,4.99-18.46,16.65-24.77,27.15
				c-3.98,6.93-10.82,11.41-15.64,17.64c4.04-1.34,6.92-4.59,10.28-7.01c5.78-4.2,10.88-9.22,16.47-13.65
				c4.67-3.65,8.29-8.39,12.73-12.28C185.61,28.96,194.16,22.06,204.52,19.6z M131.61,431.82c0.73,3.62,1.36,7.27,2.34,10.84
				c1.06,3.77,4,6.54,6.64,9.28c3.41,3.5,7.53,6.82,12.6,7.24c-3.15-3.14-6.94-5.82-8.9-9.94
				C141.14,442.77,137.42,436.27,131.61,431.82z M382.15,449c-1.91,3.92-5.37,6.68-8.33,9.77c6.62-2.27,12.41-6.63,16.9-11.92
				c1.75-4.96,3.12-10.08,4.48-15.17C388.43,435.19,385.6,442.68,382.15,449z M244.96,495.43c-0.71,0.98-1.05,2.16-1.52,3.27
				c2.35,0.77,4.74,1.88,7.28,1.57c2.23-0.24,5.75-1.03,4.71-4.04C252.35,494.18,248.36,494.4,244.96,495.43z M270.61,495.74
				c-0.33,0.92-0.61,1.86-0.83,2.82c3,0.97,6.25,2.17,9.39,1c1.28-0.5,3.36-1.03,3.12-2.84
				C279.23,493.71,274.21,493.85,270.61,495.74z"/>
		</g>
		<g>
			<path class="st1" d="M245.31,73.7c30.97-2.72,62.69,1.92,91.21,14.48c33.31,14.25,62.09,38.63,82.21,68.7
				c20.6,30.85,32.09,67.83,31.93,104.97c0.42,38.92-11.86,77.81-34.22,109.63c-20.95,30.06-50.72,53.9-84.8,67.43
				c-39.29,15.81-84.08,17.52-124.44,4.66c-40.64-12.62-76.39-39.8-100.03-75.12c-20.08-29.88-31.52-65.56-32.11-101.59
				c-0.83-30.44,5.94-61.02,19.37-88.34c11.63-23.31,27.83-44.46,47.83-61.21C171.12,92.75,207.56,77.25,245.31,73.7z M253.11,80.3
				c-31.76,1.62-62.97,12.09-89.4,29.75c-28.56,18.86-51.51,46.02-65.55,77.22c-13.25,29.14-18.41,61.78-15.24,93.61
				c3.23,33.39,16.08,65.71,36.37,92.41c15.21,19.79,34.27,36.75,56.15,48.84c20.04,11.4,42.4,18.61,65.26,21.49
				c38.74,4.95,79.02-3.33,112.63-23.22c32.05-18.75,58.09-47.55,73.6-81.28c18.74-40.4,21.84-87.72,8.77-130.28
				c-4.44-14.2-10.5-27.91-18.19-40.66c-21.85-36.66-57.04-65.2-97.52-78.76C298.57,82.03,275.71,79.14,253.11,80.3z"/>
		</g>
		<g>
			<path class="st1" d="M252.85,128c29.08-2.32,58.8,5.46,83.09,21.63c32.23,21.23,54.64,56.79,59.43,95.14
				c5.25,38.44-7.03,78.89-33.06,107.7c-24.56,28-61.32,44.99-98.62,44.92c-22.58,0.26-45.18-5.56-64.9-16.54
				c-25.7-14.08-46.39-36.96-58.16-63.76c-9.69-21.94-13.38-46.48-10.56-70.3c3.74-33.29,20.48-64.9,45.92-86.69
				C197.28,141.53,224.65,130.02,252.85,128z M183.67,162.74c-21.25,17.23-36.99,41.33-43.52,67.95c-1.86,6.34-2.74,12.94-3.4,19.5
				l-0.18-0.03c-0.03,0.53-0.09,1.6-0.12,2.14c-0.51,6.39-0.29,12.8-0.25,19.2l0.21,0.05c0.06,0.6,0.17,1.79,0.23,2.39
				c0.56,6.79,1.76,13.51,3.22,20.16l0.13,0.03c0.18,0.58,0.54,1.74,0.72,2.32c1.82,6.66,4.03,13.25,7.06,19.47
				c0.25,0.59,0.75,1.76,1,2.35c3.05,6.17,6.68,12.03,10.4,17.83c0.69,0.85,1.35,1.75,2.17,2.51c3.37,5.29,7.72,9.86,12.12,14.3
				c0.88,0.89,1.58,2.18,2.87,2.58c1.24,1.02,2.14,3.12,3.94,3.15c0.53-0.56,1.57-1.68,2.1-2.25l0.11,0.04
				c0.89-0.72,1.82-1.4,2.73-2.1c1.83-1.58,3.71-3.1,5.59-4.62c0.64-0.46,1.28-0.91,1.93-1.36c2.77-1.62,5.52-3.3,8.09-5.23
				c0.88-0.4,1.75-0.82,2.63-1.24c3.55-1.61,7.04-3.33,10.53-5.07c-2.87,2.55-5.71,6-5.27,10.1c-0.03,3.85,2.85,7.07,6.29,8.44
				l-1.44-0.02c0.81,0.96,1.61,1.92,2.42,2.89c-0.59,0.03-1.78,0.08-2.37,0.11c0.16,2.69,0.14,5.4-0.02,8.1
				c3.16,0.16,6.34,0.39,9.5,0.17c-2.41,0.82-4.84,1.83-6.62,3.72c-1.2,0.55-2.36,1.16-3.54,1.73c-2.79,0.98-5.2,2.72-7.34,4.71
				c1.74,0.79,3.46,1.66,5.29,2.27c22.88,10.76,49.18,13.91,74.03,9.47c2.35-0.48,4.84-0.69,7.01-1.77c5.17-0.81,10.22-2.36,15-4.51
				c2.77-0.52,5.31-1.85,7.81-3.1c2-0.68,3.92-1.61,5.68-2.77c0.24-2.79-4.06-3.25-5.68-5.11l-0.78,0.22
				c-1.36-0.68-2.7-1.37-4.06-2.01c0.47-0.46,1.41-1.39,1.88-1.85c1.25-0.24,2.51-0.48,3.77-0.72c-1.51-0.34-3.01-0.67-4.51-1
				c1.38-0.79,2.77-1.56,4.18-2.32c-1.25-0.13-2.49-0.26-3.73-0.39c0.81-0.91,1.63-1.81,2.43-2.73c0.42-1.69,1.41-3.12,2.56-4.4
				c-0.65-0.78-1.25-1.61-1.79-2.46c0.96-4.95,2.74-9.69,4.04-14.56c1.16,0.9,2.19,1.93,3.29,2.93l0.62-0.75
				c1.01,0.66,2.02,1.33,3.1,1.92c2.52,1.69,5.13,3.24,7.78,4.74c0.42,0.31,1.28,0.93,1.71,1.24c2.34,1.63,4.63,3.35,6.88,5.11
				c0.81,0.71,1.62,1.42,2.44,2.15c0.74,0.51,1.5,1,2.29,1.46c1.19-0.69,2.16-1.68,3.18-2.59c0.84-0.63,1.52-1.43,2.28-2.15
				c4.34-4.66,8.63-9.37,12.4-14.52c0.58-0.85,1.18-1.7,1.78-2.55c3.93-5.64,7.56-11.53,10.32-17.83c0.58-0.88,1.07-1.82,1.58-2.74
				c2.51-6.25,4.97-12.54,6.65-19.06c0.2-0.55,0.59-1.65,0.78-2.2c1.38-6.68,2.65-13.38,3.34-20.17c-0.02-0.6-0.06-1.79-0.08-2.39
				l0.34-0.09c0.2-6.55,0.08-13.1,0.16-19.66c-1.34-8-2.44-16.08-4.67-23.91c-0.17-0.56-0.52-1.69-0.69-2.26
				c-2.06-6.95-4.73-13.72-7.94-20.21c-0.27-0.51-0.79-1.51-1.06-2.01c-3.17-6.34-7.11-12.24-11.2-18.01
				c-0.36-0.46-1.08-1.39-1.44-1.85c-4.74-5.96-10.04-11.46-15.62-16.64c-0.48-0.43-1.43-1.29-1.9-1.72
				c-4.61-3.6-9.06-7.52-14.17-10.37c-1.29-0.76-2.34-2.37-3.83-2.52l0.29-0.21c-5.34-2.51-10.48-5.44-15.88-7.82
				c-16.03-6.55-33.34-10.1-50.68-9.75C232.87,135.01,205.27,145.09,183.67,162.74z"/>
		</g>
	</g>
	<path class="st2" d="M241.11,90.92c1.7-0.2,3.39-0.41,5.09-0.62c1.49,8.82,3.2,17.6,4.44,26.46c-1.81,0.31-3.63,0.59-5.44,0.87
		c-4.65-5.58-9.14-11.3-13.95-16.74c1.23,6.2,2.2,12.45,3.31,18.67c-1.75,0.33-3.5,0.65-5.25,0.96c-1.34-8.87-3.15-17.66-4.49-26.53
		c1.95-0.34,3.91-0.65,5.87-0.96c4.58,5.51,8.85,11.31,13.74,16.56c0.19-1.36-0.09-2.71-0.7-3.92
		C242.41,100.84,241.8,95.87,241.11,90.92z"/>
	<g>
		<path class="st2" d="M254.62,116.49c3.17-9.02,6.65-17.93,9.99-26.89c2.19,0.13,4.38,0.28,6.57,0.45
			c2.58,9.1,6.24,17.87,8.47,27.05c-1.98-0.07-3.95-0.14-5.92-0.2c-0.47-1.9-0.97-3.79-1.47-5.68c-3.31-0.03-6.62-0.06-9.92-0.06
			c-0.66,1.8-1.31,3.61-1.95,5.41C258.46,116.55,256.54,116.53,254.62,116.49z M267.52,96.38c-1.29,3.32-2.41,6.7-3.57,10.06
			c2.25,0.05,4.51,0.1,6.78,0.15C269.76,103.15,268.81,99.7,267.52,96.38z"/>
	</g>
	<path class="st2" d="M287.28,90.84c7.12,1.53,14.17,3.37,21.29,4.92c-0.45,1.58-0.9,3.16-1.36,4.74c-2.49-0.69-4.97-1.44-7.53-1.83
		c-1.88,7-3.34,14.12-4.86,21.22c-1.87-0.27-3.73-0.55-5.59-0.83c1.5-7.24,3.12-14.47,4.99-21.62c-2.7-0.74-5.41-1.42-8.12-2.12
		C286.49,93.82,286.88,92.33,287.28,90.84z"/>
	<path class="st2" d="M314.25,97.81c1.82,0.47,3.63,0.97,5.44,1.46c-2.52,8.52-5.61,16.86-7.88,25.44c-1.92-0.4-3.82-0.89-5.7-1.42
		C308.87,114.81,311.6,106.32,314.25,97.81z"/>
	<g>
		<path class="st2" d="M193.64,104.41c5.41-1.62,10.4-4.78,16.05-5.51c6.06-0.53,9.71,7.48,5.86,12c5.05,1.26,4.89,7.46,8.06,10.74
			c-1.91,0.71-3.81,1.42-5.72,2.11c-1.48-2.96-2.83-5.97-4.41-8.87c-3.14,0.52-6.11,1.69-9.05,2.86c1.2,3.37,2.49,6.71,3.7,10.08
			c-1.71,0.56-3.37,1.23-5.12,1.64C199.64,121.22,196.41,112.88,193.64,104.41z M200.24,107.16c0.86,2.11,1.71,4.23,2.53,6.36
			c3.47-1.37,7.54-2.2,9.74-5.52c-1.04-1.4-1.5-3.99-3.71-3.91C205.72,104.3,203,105.92,200.24,107.16z"/>
	</g>
	<g>
		<path class="st2" d="M329.26,106.59c7.86-2.73,17.93,3.63,17.33,12.3c-0.43,6.43-4.29,13.46-10.85,15.26
			c-7.36,1.55-16.09-4.28-15.91-12.18C319.98,115.79,323.38,109.09,329.26,106.59z M332.17,111.31c-4.16,1.68-6.34,6.36-6.88,10.57
			c-0.65,5.11,5.67,9.41,10.08,6.62c3.49-2.3,5.59-6.56,5.76-10.69C341.23,113.35,336.36,109.93,332.17,111.31z"/>
	</g>
	<path class="st2" d="M167.25,119.59c5.5-3.59,11.37-6.58,16.84-10.23c0.88,1.33,1.91,2.61,2.42,4.15
		c-3.89,2.67-8.13,4.79-12.12,7.28c0.99,1.62,1.98,3.24,2.99,4.86c3.53-2.33,7.24-4.36,10.78-6.66c0.94,1.32,1.87,2.65,2.79,3.99
		c-3.76,2.3-7.58,4.51-11.39,6.75c1.09,1.95,2.17,3.9,3.22,5.88c4.46-2.26,8.64-5.02,12.99-7.46c0.81,1.36,1.62,2.72,2.45,4.07
		c-5.83,3.62-11.84,6.94-17.68,10.53C176.04,135.07,171.89,127.18,167.25,119.59z"/>
	<path class="st2" d="M341.68,139.95c5.42-7.05,10.54-14.32,15.96-21.36c1.59,1.29,3.19,2.58,4.77,3.89
		c-1.1,6.84-1.94,13.73-2.55,20.62c3.85-4.53,6.95-9.66,10.83-14.16c1.51,0.84,2.89,1.9,4.31,2.9
		c-5.37,7.23-10.68,14.49-16.09,21.68c-1.46-1.21-2.91-2.42-4.37-3.61c1-7.28,1.62-14.61,2.74-21.88c-3.88,5.1-7.63,10.3-11.51,15.4
		C344.4,142.27,343.04,141.11,341.68,139.95z"/>
	<path class="st2" d="M143.19,139.39c5.38-5.01,11.27-9.44,16.67-14.43c1.01,1.28,2.04,2.56,3.05,3.84
		c-2.08,1.69-4.16,3.39-6.24,5.07c4.58,5.69,9.46,11.16,13.84,17.01c-1.22,1.37-2.64,2.55-3.98,3.8
		c-4.74-5.49-9.16-11.27-13.91-16.75c-2.49,1.15-4.3,3.32-6.45,4.96C145.17,141.72,144.18,140.55,143.19,139.39z"/>
	<path class="st2" d="M136.73,146.17c7.08,5.26,13.8,11.01,20.52,16.72c-0.85,1.69-2.14,3.12-3.27,4.63
		c-7.08-1.3-14.2-2.43-21.32-3.49c4.83,4.11,9.9,7.94,14.56,12.26c-1.16,1.22-2.26,2.49-3.52,3.6
		c-7.03-5.25-13.59-11.13-20.43-16.63c1.22-1.56,2.43-3.12,3.63-4.68c6.93,1.14,13.88,2.2,20.79,3.5c-4.48-4.22-9.52-7.78-14-12
		C134.71,148.78,135.73,147.48,136.73,146.17z"/>
	<g>
		<path class="st2" d="M362.07,156c8.81-3.22,17.45-6.9,26.27-10.14c1.39,1.67,2.8,3.32,4.23,4.95
			c-4.63,8.28-9.26,16.55-13.82,24.86c-1.35-1.59-2.68-3.19-4.02-4.79c1-1.64,2.01-3.28,3.01-4.92c-2.21-2.51-4.37-5.06-6.59-7.55
			c-1.66,0.74-3.27,1.59-5.01,2.11C364.55,159.24,363.34,157.57,362.07,156z M375.73,156.61c1.46,1.67,2.92,3.34,4.37,5.03
			c1.95-2.98,3.8-6.03,5.46-9.18C382.23,153.72,378.97,155.15,375.73,156.61z"/>
	</g>
	<path class="st2" d="M380.61,178.98c7.43-4.87,14.85-9.74,22.22-14.69c0.97,1.53,1.99,3.05,2.82,4.68
		c-5.59,4.49-11.9,8.06-17.86,12.06c2.29,3.94,4.93,7.67,7.18,11.64c-1.37,0.8-2.74,1.62-4.1,2.44
		C387.53,189.68,384.06,184.33,380.61,178.98z"/>
	<path class="st2" d="M115.49,176.8c0.97-1.67,1.96-3.33,2.96-4.98c7.53,4.67,15.35,8.87,22.82,13.65c-0.96,1.54-1.9,3.1-2.81,4.67
		C130.69,185.9,123.16,181.22,115.49,176.8z"/>
	<path class="st2" d="M104.03,201.91c0.56-1.66,1.05-3.34,1.75-4.95c8.44,2.41,16.56,5.86,24.94,8.48c-0.6,1.84-1.22,3.67-1.84,5.51
		c-6.9,1.38-13.88,2.43-20.68,4.26c5.64,2.22,11.45,3.98,17.08,6.21c-0.5,1.65-0.99,3.31-1.47,4.97c-8.41-2.75-16.71-5.8-25.07-8.7
		c0.64-1.88,0.86-4.07,2.19-5.62c6.58-1.8,13.45-2.4,20.04-4.22C115.36,205.76,109.7,203.81,104.03,201.91z"/>
	<path class="st2" d="M405.76,207.08c5.52-1.68,11.08-3.21,16.61-4.86c0.63,1.89,1.2,3.79,1.8,5.7c-6.02,1.72-12.17,3.12-18,5.39
		c-4.59,1.82-2.4,10.21,2.55,9.41c6.22-1.09,12.06-3.7,18.27-4.87c0.48,1.82,0.98,3.63,1.49,5.44c-5.44,1.63-10.87,3.26-16.33,4.81
		c-3.06,0.84-6.76,0.96-9.2-1.38c-3.67-3.68-4.96-9.42-3.56-14.37C400.25,209.48,403.07,207.91,405.76,207.08z"/>
	<g>
		<path class="st2" d="M101.31,228.66c6.72-2.2,15.87-0.45,19.23,6.41c2.4,5.76,1,13.46-4.38,17.08c-5.37,3.16-12.53,2.33-17.6-1.05
			C91.17,245.59,92.75,232.2,101.31,228.66z M102.91,234.13c-5.23,1.78-5.82,9.96-0.88,12.47c4.95,3.28,14.28,2.43,14.96-4.72
			C117.65,234.75,108.38,232.03,102.91,234.13z"/>
	</g>
	<path class="st2" d="M404.86,236.01c8.67-1.01,17.42-1.4,26.09-2.47c0.11,2.09,0.23,4.19,0.32,6.29
		c-5.69,3.87-11.32,7.86-16.87,11.93c6-0.34,11.98-0.9,17.97-1.37c0.07,1.75,0.15,3.51,0.24,5.26c-8.73,1-17.5,1.47-26.22,2.48
		c-0.13-1.94-0.37-3.89-0.22-5.83c5.64-4.46,11.84-8.18,17.41-12.75c-6.24,0.81-12.53,1.19-18.79,1.79
		C404.72,239.56,404.62,237.77,404.86,236.01z"/>
	<path class="st2" d="M105.12,261.79c4.73-0.16,9.45-0.46,14.18-0.76c0.04,1.26,0.08,2.52,0.13,3.78c-0.72,0.16-2.16,0.49-2.88,0.65
		c3.67,3.32,5.67,8.59,3.69,13.38c-2.9,8.22-13.99,10.59-21.1,6.61c-8.84-4.77-8.38-20.72,1.91-23.51c0.12,1.83,0.39,3.68,0.22,5.52
		c-2.16,2.22-4.89,4.98-3.51,8.4c1.73,5.85,9.34,6.73,14.17,4.47c3.78-1.58,5.34-6.58,3.37-10.11c-1.08-2.05-3.39-2.83-5.36-3.72
		c0.07,2.19,0.19,4.39,0.3,6.59c-1.53,0.07-3.06,0.14-4.59,0.2C105.49,269.46,105.24,265.63,105.12,261.79z"/>
	<path class="st2" d="M406.25,264.18c8.75,0.14,17.5,0.3,26.25,0.31c0.06,1.94,0.1,3.87,0.16,5.81c-8.84-0.13-17.68,0.04-26.5-0.53
		C406.19,267.9,406.22,266.04,406.25,264.18z"/>
	<path class="st2" d="M405.16,282.64c9.2-1.25,18.32-2.98,27.52-4.23c-0.28,1.93-0.56,3.86-0.81,5.81
		c-6.77,1.03-13.61,1.46-20.4,2.26c5.78,3.61,12.22,6.01,18.04,9.52c-0.07,1.96-0.56,3.88-1.03,5.79
		c-8.02-4.69-16.13-9.19-24.23-13.72C404.54,286.25,404.85,284.44,405.16,282.64z"/>
	<path class="st2" d="M96.93,296.94c8.48-2.22,17.06-4.12,25.62-6.06c0.4,1.84,0.79,3.69,1.16,5.54c-8.51,2.1-17.12,3.85-25.59,6.14
		C97.62,300.71,97.13,298.85,96.93,296.94z"/>
	<g>
		<path class="st2" d="M101.98,317.23c7.33-5.88,14.89-11.45,22.17-17.39c0.67,1.98,1.32,3.97,1.98,5.95
			c-1.61,1.16-3.2,2.34-4.76,3.55c1.15,3.04,2.15,6.13,3.08,9.24c1.89,0.02,3.78,0.04,5.67,0.05c0.69,1.94,1.38,3.87,2.09,5.81
			c-9.46-0.14-18.91-0.6-28.36-1.09C103.25,321.3,102.61,319.26,101.98,317.23z M108.8,318.5c3.61,0.11,7.22,0.09,10.84,0.07
			c-0.65-2.15-1.33-4.3-1.97-6.45C114.69,314.22,111.73,316.35,108.8,318.5z"/>
	</g>
	<path class="st2" d="M401.06,301.88c8.42,2.5,16.63,5.68,25.08,8.06c-1.88,6.5-4.03,12.93-6.13,19.36
		c-1.41-0.54-2.83-1.08-4.24-1.6c1.27-4.62,2.91-9.12,4.16-13.73c-1.66-0.58-3.32-1.17-4.95-1.77c-1.62,4.11-2.87,8.35-4.11,12.59
		c-1.56-0.46-3.11-0.95-4.65-1.45c1.46-4.18,2.82-8.39,4.11-12.63c-2.15-0.64-4.28-1.37-6.49-1.73c-1.69,4.59-2.96,9.32-4.45,13.97
		c-1.53-0.45-3.05-0.91-4.56-1.38C396.77,314.96,399.01,308.45,401.06,301.88z"/>
	<g>
		<path class="st2" d="M389.19,331.14c0.89-1.61,1.79-3.22,2.68-4.84c7.82,4.1,15.37,8.69,23.13,12.9
			c-2.36,4.58-4.72,9.17-7.44,13.55c-1.98,3.3-6.67,4.53-9.88,2.27c-2.29-1.13-3.06-3.62-3.59-5.91c-4.81,1.92-8.41-2.93-13.07-3
			c1.06-1.81,2.09-3.64,3.09-5.48c3.05,1.12,5.98,2.56,8.93,3.94c2.18-2.42,3.75-5.29,5.38-8.1
			C395.4,334.59,392.29,332.86,389.19,331.14z M402.09,338.58c-1.25,2.43-2.69,4.77-3.69,7.32c-1.56,3.18,3.73,6.17,5.72,3.39
			c1.74-2.28,2.88-4.95,4.24-7.46C406.27,340.74,404.19,339.64,402.09,338.58z"/>
	</g>
	<path class="st2" d="M254.05,327.97c3.65-0.28,7.32-0.34,10.99-0.41c0.04,9.96,0.11,19.93,0.33,29.89
		c-3.64,0.07-7.28,0.11-10.91,0.13C254.39,347.71,254.25,337.84,254.05,327.97z"/>
	<path class="st2" d="M123.5,335.82c0.52-5.21,7.37-8.16,11.63-5.25c3.53,2.3,5.75,6.25,6.69,10.29c0.84,3.43-0.66,7.62-3.97,9.14
		c-0.99-1.29-1.84-2.67-2.72-4.03c3.99-3.84,0.68-9.32-3.17-11.74c-0.75,0.42-2.24,1.24-2.99,1.65c0.19,4.87,2.53,9.32,2.95,14.16
		c-0.67,5.39-7.97,8.44-12.18,4.86c-3.59-3.03-6.35-7.86-5.43-12.68c0.46-2.24,2.14-3.9,3.51-5.62c0.99,1.56,1.97,3.14,2.9,4.75
		c-3.35,3.27-0.95,8.6,2.92,10.16c1.3-0.3,2.98-1.11,2.82-2.71C125.86,344.39,123.59,340.32,123.5,335.82z"/>
	<path class="st2" d="M292.83,330.94c3.63,0.74,7.18,1.77,10.73,2.82c-1.68,6.76-4.56,13.21-5.46,20.15
		c0.8,0.44,2.39,1.32,3.18,1.76c4.56-5.7,5.08-13.37,7.38-20.08c3.4,1.01,6.84,1.93,10.06,3.43c-1.3,4.87-3.08,9.61-4.04,14.56
		c-0.87,4.16-2.83,8.62-7.04,10.32c-5.1,2.69-10.9,0.29-15.55-2.22c-3.01-2.71-5.55-6.58-4.65-10.82
		C288.69,344.09,291.51,337.71,292.83,330.94z"/>
	<path class="st2" d="M213.98,336.81c4.02-2.34,8.77-2.64,13.32-2.58c-0.05,2.97-0.12,5.94-0.16,8.92
		c-2.61-0.03-5.22-0.01-7.82,0.08c-0.1,0.6-0.32,1.8-0.42,2.4c3.25-0.07,6.55-0.62,9.78,0.01c5.29,1.92,7.07,8.93,4.49,13.64
		c-1.78,4.09-6.11,6-10.08,7.32c-3.16,0.22-6.34-0.01-9.5-0.17c0.16-2.7,0.18-5.41,0.02-8.1c0.59-0.03,1.78-0.08,2.37-0.11
		c2.4-0.11,4.78-0.46,7.15-0.83c0.06-0.56,0.18-1.66,0.24-2.21c-2.79,0.05-5.58,0.21-8.37,0.17c-3.44-1.37-6.32-4.59-6.29-8.44
		C208.27,342.81,211.11,339.36,213.98,336.81z"/>
	<path class="st2" d="M367.8,362.81c1.66-4.41,5.2-8.58,9.86-9.85c2.51-0.87,4.88,0.71,7.15,1.56c-1.02,1.4-2.06,2.79-3.1,4.18
		c-4.39-1.94-8.69,1.98-9.45,6.17c-0.23,1.73,1.56,3.39,3.24,2.79c4.05-1.74,6.91-5.46,11.03-7.08c3.8-1.15,7.74,2.05,8.75,5.61
		c1.18,5.18-2.59,10.02-6.67,12.74c-3.08,1.95-6.86,1.14-9.76-0.72c1.15-1.32,2.31-2.64,3.48-3.94c1.92,0.2,4.36,0.9,5.79-0.9
		c2.15-1.7,3.9-6.01,0.52-7.39c-5.01,0.98-7.93,6.35-12.94,7.51C370.24,374.42,365.63,367.73,367.8,362.81z"/>
	<path class="st2" d="M150.98,360.93c1.24-1.06,2.49-2.12,3.73-3.18c4.59,5.05,9.07,10.21,13.83,15.11
		c-6.61,6-12.9,12.33-19.51,18.32c-4.35-4.99-8.93-9.77-13.31-14.73c1.11-1.06,2.22-2.11,3.33-3.17c3.36,3.41,6.52,7,9.69,10.58
		c1.37-1.32,2.74-2.64,4.11-3.96c-3.11-3.16-6.06-6.46-8.95-9.81c1.21-1.01,2.42-2.01,3.63-3.01c2.75,3.29,5.77,6.36,8.64,9.55
		c1.7-1.54,3.39-3.08,5.08-4.64C157.78,368.34,154.45,364.57,150.98,360.93z"/>
	<path class="st2" d="M355.83,373.71c1.42-1.14,2.53-3.21,4.4-3.5c6.01,6.35,11.26,13.39,17.25,19.78
		c-1.46,1.27-2.91,2.55-4.37,3.81C367.32,387.13,361.74,380.28,355.83,373.71z"/>
	<path class="st2" d="M173.99,377.06c1.74,0.81,3.14,2.17,4.57,3.42c-2.46,3.06-4.71,6.27-6.99,9.46c2.75,1.98,5.35,4.19,8.27,5.94
		c2.78-2.77,4.65-6.28,6.95-9.43c1.59,1.08,3.17,2.17,4.76,3.27c-5.36,7.22-10.37,14.69-15.76,21.89c-1.43-1.16-2.91-2.28-4.13-3.67
		c1.67-2.81,3.73-5.36,5.65-8c-2.83-2.04-5.64-4.13-8.48-6.16c-1.92,2.77-3.88,5.5-5.9,8.19c-1.49-1.12-2.99-2.23-4.49-3.32
		C163.66,391.48,168.62,384.11,173.99,377.06z"/>
	<path class="st2" d="M342.23,384.05c1.49-1.06,2.96-2.17,4.57-3.04c4.55,5.71,8.49,11.9,12.86,17.76c2.14-1.6,4.1-3.55,6.58-4.65
		c1.02,1.04,1.92,2.22,2.53,3.56c-5.57,4.62-11.72,8.5-17.31,13.08c-1-1.29-1.98-2.58-2.95-3.87c2.15-1.57,4.41-3.04,6.33-4.9
		C350.92,395.82,346.32,390.11,342.23,384.05z"/>
	<path class="st2" d="M320.11,396.18c1.73-0.85,3.49-1.62,5.28-2.34c1.48,3,2.53,6.26,4.4,9.05c4.68,4.11,10.16,7.22,14.92,11.24
		c-1.92,1.02-3.9,1.9-5.87,2.79c-3.3-2.69-6.5-5.49-9.83-8.13c-0.06,4.31,0.06,8.62-0.01,12.94c-1.93,0.84-3.83,1.73-5.72,2.63
		c0.18-6.19,1.04-12.34,0.99-18.53C323.59,402.37,321.53,399.36,320.11,396.18z"/>
	<path class="st2" d="M202.89,394.63c1.71,0.73,3.41,1.49,5.13,2.24c-2.93,6.78-6.14,13.45-9.18,20.18c2.5,1.16,4.98,2.35,7.45,3.56
		c-0.69,1.38-1.37,2.78-2.04,4.18c-6.61-2.89-13-6.26-19.6-9.18c0.57-1.53,1.16-3.05,1.76-4.55c2.45,1.24,4.93,2.43,7.43,3.58
		C196.71,407.9,199.95,401.33,202.89,394.63z"/>
	<path class="st2" d="M245.47,416.54c2.99-2.49,6.83-0.52,8.94,2.07c-0.52,2.18-0.58,4.84-2.55,6.32c-2.15,1.69-4.55,3.06-6.59,4.9
		c1.77,0.35,3.54,0.69,5.32,1.06c0.77-0.75,1.55-1.48,2.35-2.2c-0.18,2.23-0.35,5.68-3.29,5.89c-2.84-0.42-5.64-1.1-8.49-1.4
		c0.7-1.86,1.1-3.91,2.38-5.48c1.88-2.17,4.58-3.37,6.61-5.34c1.16-1.47,0.57-3.89-1.47-4.05c-1.42,0.92-2.64,2.09-3.9,3.2
		C244.39,419.81,243.26,417.49,245.47,416.54z"/>
	<g>
		<path class="st2" d="M259.14,416.38c3.03-0.97,5.74,1.71,6.33,4.5c0.95,4.03,0.81,8.64-1.46,12.22c-1.46,2.53-5.36,2.86-7.24,0.64
			c-2.74-3.64-2.72-8.65-1.34-12.82C255.96,419.01,257.08,416.92,259.14,416.38z M259.68,431.8c3.65-2.23,3.56-7.09,2.69-10.75
			c-0.33-1.39-1.25-2.02-2.76-1.89C257.18,422.86,257.34,428.08,259.68,431.8z"/>
	</g>
	<g>
		<path class="st2" d="M271.17,416.42c1.89-0.69,4.02,0.16,5.13,1.79c2.36,3.32,2.46,7.67,1.84,11.55
			c-0.53,2.95-3.05,6.25-6.42,5.39c-3.7-1.33-4.63-5.82-4.64-9.31C266.96,422.41,267.44,417.78,271.17,416.42z M271.2,419.41
			c-1.27,4.13-1.73,9.13,1.53,12.49c3.57-3.31,2.8-8.72,0.94-12.72C273.05,419.24,271.82,419.35,271.2,419.41z"/>
	</g>
	<path class="st2" d="M278.16,416.3c3.49-0.34,6.98-0.72,10.48-0.93c0.1,4.94-4.02,8.67-4.07,13.6c0.13,1.83,1.99,2.23,3.32,2.94
		c-0.91,1.86-3.03,3.29-5.08,2.16c-2.3-1.72-2.23-4.94-1.41-7.41c1.07-2.9,2.84-5.46,4.25-8.19c-2.39,0.03-4.72,0.52-6.58,2.1
		C278.76,419.14,278.46,417.72,278.16,416.3z"/>
	<g>
		<g>
			<path class="st3" d="M183.67,162.74c21.6-17.65,49.2-27.73,77.1-28.15c17.34-0.35,34.65,3.2,50.68,9.75
				c-1.82,1.26-3.47,2.73-4.95,4.37c3.43,2.16,6.9,4.28,10.28,6.53c2.92-0.54,5.86-1.09,8.77-1.74c0.37-0.28,1.12-0.85,1.49-1.13
				c1.49,0.15,2.54,1.76,3.83,2.52c-3.78,0.49-7.48,1.4-11.21,2.13c4.72,3.77,9.54,7.41,13.92,11.58c3.85-0.98,7.67-2.11,11.46-3.34
				c0.47,0.43,1.42,1.29,1.9,1.72c-3.8,1.17-7.61,2.32-11.42,3.45c4.97,5.08,9.79,10.35,13.78,16.27c4.43-0.99,8.84-2.04,13.26-3.08
				c0.36,0.46,1.08,1.39,1.44,1.85c-4.36,1.15-8.74,2.19-13.14,3.19c3.79,5.8,7.15,11.87,10.23,18.07
				c4.71-1.03,9.42-2.13,14.11-3.25c0.27,0.5,0.79,1.5,1.06,2.01c-4.76,1.19-9.54,2.27-14.33,3.31c2.63,6.42,4.89,12.99,6.5,19.75
				c5.25-0.96,10.53-1.77,15.77-2.85c0.17,0.57,0.52,1.7,0.69,2.26c-5.33,0.89-10.64,1.85-15.95,2.79
				c1.71,7.51,2.46,15.19,2.93,22.87c5.71-1,11.34-2.41,17.04-3.48c-0.1,0.99-0.19,1.98-0.28,2.97c-5.71-0.05-11.16,1.92-16.73,2.86
				c0,6.66-0.47,13.32-1.41,19.92c6.2-1.37,12.42-2.64,18.57-4.27c0.02,0.6,0.06,1.79,0.08,2.39c-6.33,1.45-12.66,2.89-19,4.24
				c-1.09,6.77-2.8,13.41-4.91,19.93c6.88-1.22,13.72-2.62,20.57-4c-0.19,0.55-0.58,1.65-0.78,2.2c-6.73,1.91-13.69,2.84-20.54,4.24
				c-2.44,6.51-5.15,12.92-8.43,19.05c7.44-1.38,15.02-2.16,22.32-4.23c-0.51,0.92-1,1.86-1.58,2.74
				c-7.14,1.92-14.6,2.26-21.73,4.16c-4.05,5.37-7.2,11.46-11.44,16.76c7.66-0.71,15.25-1.91,22.85-3.09
				c-0.6,0.85-1.2,1.7-1.78,2.55c-6.65,1.14-13.34,1.92-20.02,2.74c-4.59,0.16-6.44,5.09-9.45,7.8c-0.43-0.31-1.29-0.93-1.71-1.24
				c1.61-1.91,3.22-3.82,4.81-5.74c-4.2,0.3-8.38,0.89-12.59,1c-1.08-0.59-2.09-1.26-3.1-1.92c4.19-4.99,7.5-10.64,10.69-16.3
				c-7.25,0.52-14.47,1.36-21.73,1.83c-1.29,2.9-2.6,5.8-4.09,8.6c-2.31-2.71,0.63-5.7,1.42-8.39c-3.49,0.22-6.99,0.39-10.48,0.5
				c-0.41,1.14-0.82,2.27-1.22,3.42c-17.32-4.67-35.67-6.41-53.41-3.26c-2.67,0.47-5.39,0.71-8.09,0.39
				c-6.33-0.68-12.69-0.59-19.03-1.02c0.71,2.3,2.53,4.29,2.66,6.74c-1.11,0.82-1.93,0.55-2.45-0.81c-1.12-1.98-1.94-4.11-2.85-6.19
				c-7.28-0.48-14.53-1.28-21.81-1.81c3.45,5.84,7,11.64,11.21,16.98c-0.88,0.42-1.75,0.84-2.63,1.24
				c-4.56,0.01-9.07-0.71-13.6-1.03c1.84,2.08,3.69,4.15,5.51,6.26c-0.65,0.45-1.29,0.9-1.93,1.36c-2.29-2.7-4.58-5.39-6.91-8.04
				c-7.53-0.93-15.07-1.79-22.55-3.06c-0.82-0.76-1.48-1.66-2.17-2.51c7.63,0.95,15.22,2.25,22.88,3.07
				c-4.3-5.32-7.32-11.58-11.51-16.9c-7.16-1.76-14.57-2.38-21.77-4c-0.25-0.59-0.75-1.76-1-2.35c7.29,1.14,14.51,2.68,21.83,3.69
				c-3.24-6.12-5.98-12.48-8.37-18.97c-6.84-1.39-13.77-2.39-20.52-4.19c-0.18-0.58-0.54-1.74-0.72-2.32
				c6.79,1.5,13.62,2.83,20.46,4.08c-2.13-6.53-3.75-13.21-4.92-19.97c-6.31-1.38-12.66-2.61-18.89-4.3
				c-0.06-0.6-0.17-1.79-0.23-2.39c6.19,1.62,12.45,2.97,18.71,4.31c-1.01-6.85-0.34-14.08-3.71-20.37c-5-1.01-9.97-2.14-14.96-3.19
				c0.03-0.54,0.09-1.61,0.12-2.14l0.18,0.03c4.81,0.82,9.57,1.9,14.31,3.06c-0.44-8,1.09-16.51-2.72-23.94
				c-1.97-0.35-3.94-0.71-5.9-1.06c-0.78,0.8-1.56,1.6-2.29,2.44C146.68,204.07,162.42,179.97,183.67,162.74z M297.01,146.74
				c-0.93,1.31-1.86,2.63-2.77,3.95c2.47,1.8,4.88,3.7,7.39,5.45c0.92-2,1.78-4.03,2.44-6.13
				C301.7,148.95,299.36,147.82,297.01,146.74z M292.78,152.57c-0.41,2-0.55,4.03-0.47,6.07c2.42-0.31,4.84-0.72,7.24-1.16
				C297.33,155.79,295.12,154.09,292.78,152.57z M305.69,159.64c3.95,4.18,8.09,8.18,12.11,12.29c4.46-0.25,8.8-1.76,13.19-2.64
				c-4.52-4.01-9.06-8.14-14.29-11.2C312.99,157.64,309.29,158.84,305.69,159.64z M292.93,160.75c3.43,4.48,6.49,9.23,9.52,13.98
				c4.32-0.61,8.63-1.34,12.94-2.08c-3.18-3.21-6.28-6.5-9.63-9.54c-0.7,1.64-1.57,3.2-2.76,4.53c-1.35-0.93-2.9-1.63-3.98-2.89
				c-0.1-1.55-0.1-3.1,0-4.65C296.99,160.34,294.95,160.56,292.93,160.75z M292.13,163.61c-1.17,3.91-2.3,7.98-1.33,12.07
				c3.01-0.01,6.01-0.24,9.01-0.53C297.59,171.09,294.98,167.25,292.13,163.61z M268.37,177.07c4.74,0.05,9.53,0.24,14.22-0.64
				c-0.8-2.07-1.59-4.14-2.45-6.19C275.03,169.47,270.99,173.14,268.37,177.07z M283.46,171.48c0.29,2.3,0.7,4.95,3.35,5.61
				C286.83,174.65,285.24,172.9,283.46,171.48z M319.65,174.07c4.1,5.08,8.28,10.13,11.69,15.71c5.25-0.44,10.4-1.59,15.56-2.6
				c-4.11-5.85-8.95-11.13-14.05-16.12C328.47,172.15,324.08,173.19,319.65,174.07z M303.59,176.78c2.78,5.18,5.44,10.43,7.81,15.82
				c5.89-0.62,11.77-1.38,17.64-2.19c-3.52-5.65-7.68-10.88-12.12-15.82C312.5,175.47,308.06,176.25,303.59,176.78z M293.85,177.93
				c1.19,0.62,2.39,1.23,3.6,1.83c0.53,4.17-3.94,4.39-6.86,5.12c-0.3,3.08-0.81,6.14-1.09,9.23c6.49,0.31,12.97-0.74,19.42-1.31
				c-2.29-5.27-4.73-10.51-7.74-15.41C298.73,177.13,296.27,177.75,293.85,177.93z M266.95,179.42c-1.1,5.23-0.36,10.64,1.45,15.62
				c5.02-0.09,10.04-0.09,15.06-0.35c-0.76-2.66-1.28-5.48-0.11-8.11c1.17-2.43,0.73-5.04,0.07-7.53
				C277.92,179.14,272.44,179.45,266.95,179.42z M332.92,191.94c3.51,5.91,6.55,12.07,9.48,18.28c5.43-1.03,10.9-1.83,16.3-3.04
				c-3-6.25-6.32-12.4-10.46-17.98C343.15,190.23,338.06,191.24,332.92,191.94z M312.25,195.02c2.47,5.96,4.49,12.09,6.17,18.31
				c7.19-0.87,14.38-1.71,21.55-2.74c-2.73-6.14-5.66-12.25-9.4-17.84C324.51,192.95,318.31,194.1,312.25,195.02z M290.03,196.49
				c0.99,6.28,2.38,12.5,3.12,18.83c7.7-0.73,15.47-0.84,23.13-2c-2.08-6.12-3.92-12.33-6.41-18.31
				C303.28,195.73,296.67,196.36,290.03,196.49z M255.26,197.27c-0.26,4.14-3.62,6.5-6.99,8.19c2.42,2.88,2.97,6.65,3.74,10.2
				c3.06,0.9,6.44,0.25,9.64,0.43c-0.02-6.26,0.12-12.51-0.14-18.76C259.42,197.32,257.34,197.3,255.26,197.27z M270.95,197.18
				c0.7,2.31,0.97,5.05-1.05,6.82c-1.41,1.95-4,1.06-6.01,1.15c0.09,3.66,0.08,7.32,0.13,10.98c3.34-0.05,6.69-0.07,10.04-0.08
				c-0.26-2.45-0.84-4.89-0.72-7.37c3.59-3.97,8.85-6.33,11.25-11.38C280.05,196.86,275.49,197.28,270.95,197.18z M279.79,215.58
				c3.65,0,7.31-0.06,10.96-0.11c-0.41-3.98-0.96-7.95-1.68-11.88C285.63,207.3,282.81,211.53,279.79,215.58z M343.07,212.35
				c2.58,6.11,4.57,12.46,5.89,18.96c5.76-0.69,11.48-1.63,17.24-2.34c-1.63-6.59-3.58-13.16-6.5-19.31
				C354.18,209.88,348.64,211.73,343.07,212.35z M319.02,215.52c1.51,6.02,2.53,12.14,3.64,18.24c8.01-0.15,16.09-1.37,24.11-2.19
				c-1.38-6.47-3.5-12.74-5.91-18.89C333.6,213.8,326.31,214.69,319.02,215.52z M293.43,217.58c0.76,5.93,1.45,11.87,1.73,17.84
				c8.41,0.12,16.78-0.77,25.17-1.28c-0.77-6.24-2.2-12.36-3.59-18.48C308.99,216.56,301.2,216.97,293.43,217.58z M278.36,218.33
				c-0.45,1.94-0.9,3.87-1.38,5.81c-1.42-1.72-2.39-3.73-3.06-5.85c-3.32-0.04-6.64-0.05-9.96-0.04c-0.01,5.95,0.06,11.9-0.03,17.86
				c9.7-0.06,19.42,0.29,29.11-0.46c-0.52-6.05-1.11-12.1-1.81-18.14C286.93,217.66,282.64,217.93,278.36,218.33z M251.95,218.32
				c0.15,4.5,2.47,8.34,4.63,12.13c-2.49-0.74-4.27-2.61-6.09-4.33c-3.12,3.68-8.26,4.17-11.72,7.36c0.46,0.66,1.36,1.98,1.82,2.64
				c7.03-0.01,14.07-0.02,21.1,0.05c-0.06-5.98,0.01-11.96-0.05-17.93C258.41,218.26,255.18,218.26,251.95,218.32z M349.74,233.47
				c1.16,7.74,2.54,15.5,2.47,23.36c5.79-0.56,11.63-1.32,17.23-2.93c0.02-7.65-1.2-15.23-2.62-22.73
				C361.11,231.82,355.44,232.82,349.74,233.47z M322.91,236.24c1.12,8.03,1.57,16.13,1.52,24.24c8.61-0.78,17.24-1.65,25.76-3.15
				c-0.32-7.84-1.37-15.63-2.74-23.35C339.26,234.54,331.11,235.66,322.91,236.24z M295.57,237.94c0.09,8.21,0.73,16.41,0.57,24.63
				c8.69-0.43,17.38-0.92,26.04-1.83c0.27-8.14-0.59-16.25-1.45-24.33C312.36,237.21,303.94,237.31,295.57,237.94z M225.39,246.91
				c1.45,0.78,2.9,1.57,4.35,2.37c0.12-3.92,0.41-7.84,0.52-11.76c-0.72,0.05-2.16,0.15-2.88,0.19
				C225.67,240.45,225.71,243.81,225.39,246.91z M232.54,237.95c-0.17,4.15-0.47,8.3-0.58,12.46c1.98,1.75,4.29,3.48,5.09,6.13
				c0.53,2.07,0.18,4.23,0.13,6.33c4.07,0.15,8.15,0.35,12.22,0.49c-0.04-4.99-0.31-10.8,3.72-14.48c0.03,4.88-0.67,9.72-1,14.59
				c2.1-0.08,4.21-0.18,6.31-0.34c1.03,0.18,2.06,0.37,3.1,0.55c0.07-0.77,0.22-2.31,0.3-3.09c-0.88,0.59-2.64,1.78-3.52,2.37
				c4-5.55-0.13-11.44-1.85-16.87c-1.02-2.64,0-5.34,1.15-7.73c-5.08,0.14-10.16,0.01-15.23-0.18c-0.19,0.52-0.57,1.56-0.76,2.08
				C238.41,240.54,235.71,238.22,232.54,237.95z M264.04,238.48c-0.07,3.57-0.08,7.13-0.04,10.71c2.93-0.05,5.86-0.03,8.8,0.07
				c0.18,4.72-0.07,9.43-0.32,14.14c7.18-0.1,14.36-0.42,21.53-0.81c-0.46-8.12-0.28-16.26-0.8-24.37
				C283.49,238.03,273.77,238.59,264.04,238.48z M261.25,239.38c-0.44,1.88-1.14,4.19-0.16,6
				C262.78,244.64,262.46,240.38,261.25,239.38z M178.92,249.34c-1.16,2.66-2.28,5.34-3.32,8.04c8.7,1.33,17.44,2.59,26.23,3.02
				c-1.75-2.81-4.18-5.08-6.08-7.76c-1.73-2.51-1.97-5.62-2.45-8.52C187.54,243.05,184.59,249.84,178.92,249.34z M352.3,259.48
				c0.12,6.69-0.31,13.37-1.15,20.01c5.69-1.03,11.38-2.07,17.07-3.17c0.95-6.62,1.42-13.3,1.3-19.98
				C363.81,257.55,358.04,258.45,352.3,259.48z M175.56,266.91c1.6,0.41,3.67,0.2,4.6,1.89c-0.27,3.93-1.63,8.09,0.81,11.65
				c5.92,0.75,11.83,1.51,17.76,2.17c1.01-1.39,2.1-2.71,3.26-3.97c-0.3-5.23-0.95-10.43-0.74-15.67
				c-8.57-1.17-17.19-2.01-25.77-3.12C175.49,262.21,175.52,264.56,175.56,266.91z M264.1,260.24c-0.07,1.06-0.14,2.13-0.19,3.2
				c2.42,0.03,4.85,0.05,7.27-0.07C269.06,261.83,266.58,260.98,264.1,260.24z M324.39,263.06c0.01,5.64-0.21,11.29-0.91,16.9
				c8.24,2.71,16.92,1.14,25.26-0.16c0.96-6.57,1.5-13.21,1.39-19.86C341.53,260.84,332.94,261.86,324.39,263.06z M156.19,259.73
				c0.12,5.45,0.28,10.95,1.36,16.31c5.5,1.81,11.35,2.27,17,3.45c-0.32-2.79-0.57-5.58-0.72-8.37c-2.33,1.03-5.5,2.51-7.65,0.35
				C162.52,267.82,161.19,262.07,156.19,259.73z M203.54,262.35c-0.33,5.07,0.38,10.13,0.67,15.19
				C208.34,273.61,208.17,265.8,203.54,262.35z M296.07,265.08c0.01,6.67-0.44,13.32-1.05,19.96c8.21-0.51,16.45-0.78,24.62-1.81
				c-0.4-1.88-0.97-3.71-1.64-5.5c0.85,0.26,2.53,0.77,3.38,1.02c0.43-5.21,0.92-10.43,0.86-15.67
				C313.53,263.97,304.77,264.15,296.07,265.08z M210.61,263.56c-1.81,5.35-0.7,11.06,1.32,16.17c0.55,2.17,3.29,1.58,4.89,2.4
				c1.36,0.15,1.61,1.96,2.92,2.2c3.52,0.45,7.1,0.41,10.64,0.8c-0.12-6.22-0.36-12.46-0.85-18.66c-0.32,2.35-0.43,4.71-0.58,7.07
				c-5.64,0.56-6.76-5.66-9.54-9.08C216.49,264,213.54,263.87,210.61,263.56z M231.83,265.02c0.05,6.27,0.58,12.52,0.87,18.78
				c4.71-2.92,7.57-7.79,11.3-11.73c1.94-2.16,4.49-3.78,5.91-6.38C243.88,265.43,237.86,265.18,231.83,265.02z M252.05,265.63
				c0.49,4.28,1.39,8.61,3.9,12.21c-3.49,1.27-5.86,4.23-6.77,7.78c3.95-0.11,8.08,0.73,11.92-0.31c1.38-6.31,0.13-13.16,0.62-19.67
				C258.49,265.59,255.27,265.59,252.05,265.63z M263.93,265.62c0.09,6.7,0.02,13.4,0.04,20.1c4.96,0.06,9.93,0.07,14.89-0.25
				c0.89-0.93,1.8-1.85,2.73-2.75c0.41,0.71,1.24,2.13,1.66,2.84c3.21-0.08,6.42-0.17,9.64-0.31c0.4-6.74,0.79-13.47,0.93-20.22
				C283.86,265.41,273.9,265.75,263.93,265.62z M157.96,278.62c1.17,6.74,2.59,13.53,5.1,19.91c5.44,1.27,11.05,1.72,16.53,2.78
				c-1.98-6.4-3.2-13-4.82-19.47C169.18,280.71,163.51,279.92,157.96,278.62z M177,279.14 M359.26,280.26
				c2.1,2.44,4.03,5.06,5.27,8.06c-1.65-0.72-3.23-1.55-4.91-2.15c-2.11-1.23-3.32,4.06-5.13,1.75c-0.74-3.03,1.66-5.29,3.45-7.35
				c-2.27,0.37-4.54,0.72-6.82,0.94c-1.89,6.57-2.86,13.39-5.16,19.85c5.49-1.14,11.15-1.46,16.59-2.85
				c2.67-6.24,3.86-13.02,5.19-19.66C364.91,279.28,362.08,279.76,359.26,280.26z M177.23,282.19c1.26,6.52,2.8,13,4.85,19.32
				c8.17,1.11,16.37,1.91,24.58,2.59c-0.82-3.32-1.52-6.66-2.24-9.99c-0.7-3.31-2.86-6.01-4.33-8.99
				C192.47,284.13,184.83,283.29,177.23,282.19z M333.23,284.3c-0.34,0.42-1.02,1.25-1.36,1.67c-3.21,0.36-6.42,0.81-9.59,1.46
				c2.06,5.1,3.01,10.64,2.45,16.13c6.3-0.44,12.57-1.24,18.84-2.06c2.02-6.36,3.69-12.83,4.87-19.39
				C343.38,282.92,338.29,283.53,333.23,284.3z M302.25,287.07c0.5,2,0.52,4.64,2.74,5.59c4.41,2.17,9.83,2.78,12.85,7.15
				c0.4-2.09,0.85-4.16,1.32-6.22c-1.4-1.34-2.88-2.59-4.2-4c0.49-1.53,2.12-2.43,3.11-3.66
				C312.78,286.18,307.51,286.56,302.25,287.07z M218.57,287.01c1.79,6.34,6.85,11.62,6.8,18.45c2.66,0.03,5.32,0.14,7.99,0.2
				c-0.98-6.04-2.03-12.09-2.39-18.2C226.84,287.13,222.71,286.89,218.57,287.01z M294.9,287.35c-0.22,1.08-0.43,2.16-0.63,3.24
				c2.51-0.77,4.98-1.75,6.98-3.5C299.12,287.11,297.01,287.23,294.9,287.35z M249.04,288.08c-0.69,3.99-2.2,9.52-7.26,9.39
				c-3.85-1.32-5.8-5.16-8.55-7.87c0.76,5.48,1.59,10.96,2.31,16.45c7.41-0.07,14.81,0.3,22.21,0.37c1.57-0.15,3.51,0.31,4.64-1.12
				c-0.75,0.11-2.26,0.31-3.01,0.41c-2.62-5.38-4.83-11.57-2.68-17.48C254.14,288.2,251.59,288.15,249.04,288.08z M263.92,288.24
				c0.03,2.47,0.07,4.94,0.15,7.41c1.58,0.57,3.17,1.12,4.76,1.68c4.67-1.1,7.24-5.16,9.13-9.22
				C273.28,288.17,268.6,288.24,263.92,288.24z M284.05,287.66c0.43,1.59,0.86,3.18,1.3,4.78c2.29-0.55,4.6-1.06,6.91-1.55
				c0.06-0.84,0.17-2.52,0.23-3.36C289.67,287.58,286.86,287.62,284.05,287.66z M263.98,302.82c0,0.9,0.01,2.71,0.01,3.61
				c8.82-0.1,17.65-0.18,26.46-0.62c0.97-5.71-4.33-10.39-9.66-10.7C274.45,295.54,269,299.24,263.98,302.82z M209.14,304.42
				c3.63,0.11,7.25,0.37,10.84,0.93c-3.9-3.83-6.53-10.17-12.81-10.3C207.42,298.24,208.23,301.35,209.14,304.42z M320.57,297.41
				c-0.58,2.18-1.05,4.39-1.51,6.6c1.12-0.11,2.25-0.21,3.38-0.31C322.07,301.54,321.74,299.31,320.57,297.41z M292.97,305.61
				c7.81-0.03,15.59-0.67,23.38-1.16c0.41-0.81,0.83-1.61,1.26-2.41c-6.07,2.08-11.96-0.87-17.89-1.78
				C296.26,299.74,293.67,302.45,292.97,305.61z M345.4,303.5c-2.36,6.23-4.9,12.38-7.84,18.35c5.19-0.26,10.32-1.1,15.48-1.65
				c3.6-6.03,6.4-12.51,8.8-19.1C356.35,301.89,350.91,302.98,345.4,303.5z M163.82,301.1c2.57,6.41,4.89,13.08,8.8,18.82
				c5.1,1.25,10.41,1.41,15.63,1.99c-3.12-5.92-5.62-12.13-7.9-18.41C174.8,302.95,169.33,301.88,163.82,301.1z M182.89,304.05
				c2.39,6.26,5.02,12.45,8.14,18.39c7.4,0.67,14.81,1.34,22.22,1.97c-2.39-5.88-4.22-11.96-6.08-18.01
				C199.05,305.91,190.98,304.79,182.89,304.05z M324.18,306.05c-0.59,1.26-1.18,2.52-1.79,3.77c-0.08-0.93-0.25-2.78-0.33-3.71
				c-0.9,0.08-2.68,0.23-3.57,0.31c-1.8,6.05-3.72,12.07-6.02,17.95c7.39-0.54,14.78-1.21,22.17-1.94
				c3.15-5.94,5.82-12.13,8.11-18.46C336.56,304.66,330.37,305.36,324.18,306.05z M209.69,306.67c1.64,6.06,3.75,11.98,5.99,17.85
				c7.2,0.61,14.42,0.8,21.64,1.03c-1.45-5.7-2.61-11.47-3.56-17.28C225.75,307.53,217.7,307.45,209.69,306.67z M292.44,308.23
				c-0.07,2.36-0.55,4.97,0.95,7.03c1.42,2.64,4.57,3.39,6.74,5.24c1.68,1.15,0.41,3.24,0.38,4.81c3.19-0.37,6.4-0.67,9.6-0.9
				c2.14-5.87,4.21-11.76,5.95-17.76C308.2,307.44,300.3,307.53,292.44,308.23z M235.93,308.16c1.15,5.87,2.32,11.74,3.63,17.58
				c5.93-0.12,12.58,0.24,17.63-3.41c-0.58-1.98-1.61-4.07-0.93-6.17c0.76-3.35,5.96-3.54,5.68-7.39
				C253.26,308.72,244.6,308.42,235.93,308.16z M263.37,309.98c1.54,0.52,3.35,0.53,4.72,1.5c1.09,2.41,1.38,5.11,2.53,7.5
				c2.22,1.53,5.09,1.01,7.56,0.46c5.39-1.69,9.72-5.98,12.07-11.06c-7.17-0.29-14.32,0.35-21.48,0.32
				C266.91,308.82,264.73,308.4,263.37,309.98z M173.73,322.59c3.3,5.37,6.64,10.74,10.56,15.69c0.56,0.88,1.38,1.34,2.44,1.37
				c4.34,0.74,8.76,0.72,13.12,1.4c-3.97-5.24-6.82-11.27-10.72-16.49C184.03,323.68,178.86,323.24,173.73,322.59z M336.12,324.51
				c-3.11,5.63-6.36,11.2-10.25,16.33c4.88-0.28,9.77-0.65,14.62-1.34c4.16-5.42,8.01-11.09,11.46-16.99
				C346.68,323.22,341.41,323.98,336.12,324.51z"/>
		</g>
		<path class="st3" d="M300.7,228.23c1.28-1.4,2.43-3.58,4.7-3.08c1.02,1.41,2.86,3.29,1.59,5.07
			C304.7,230.84,302.72,228.98,300.7,228.23z"/>
		<path class="st3" d="M330.77,240.47c3.49,2.96,8.21,3.96,11.53,7.06c-3.26,0.14-7.07,0.87-9.77-1.46
			C330.78,244.74,330.99,242.41,330.77,240.47z"/>
		<path class="st3" d="M337.84,291.36c2.85-1.8,5.42-3.97,7.64-6.51c0.28,3.16-0.93,6.31-3.31,8.41
			C340.67,294.09,337.87,293.28,337.84,291.36z"/>
		<path class="st3" d="M173.46,352.91c3.9,0.57,7.83,0.95,11.75,1.42c-0.91,0.7-1.84,1.38-2.73,2.1l-0.11-0.04
			c-2.02-0.26-4.04-0.56-6.04-0.9C175.04,355.09,174.34,353.8,173.46,352.91z"/>
		<path class="st3" d="M342.1,354.21c3.38-0.51,6.78-0.9,10.19-1.13c-0.76,0.72-1.44,1.52-2.28,2.15c-1.81,0.45-3.65,0.77-5.47,1.13
			C343.72,355.63,342.91,354.92,342.1,354.21z"/>
		<g>
			<path class="st3" d="M243.39,360.28c12.74-2.66,26.05-2.53,38.86-0.34c-1.08,0.15-3.23,0.46-4.3,0.62
				c0.38,1.8,0.78,3.61,1.17,5.42c-0.62-0.32-1.88-0.97-2.51-1.29c-0.87,2.16-1.73,4.33-2.58,6.5c2.81-0.11,5.69,0.19,8.46-0.48
				c2.66-2.48,4.57-5.63,6.73-8.54c0.72-0.12,2.15-0.37,2.87-0.49c-1.93,3.2-4.18,6.18-6.53,9.08c2.3-0.06,4.61-0.13,6.91-0.18
				c0.43-0.31,1.29-0.93,1.71-1.24c0.55-0.01,1.64-0.04,2.19-0.05c1.41-1.28,2.85-2.54,4.31-3.79c3.1,1.25,6.18,2.55,9.21,3.95
				c1.36,0.64,2.7,1.33,4.06,2.01c-5.87,0.98-9.81,5.77-14.35,9.16c5.05-0.43,10.11-0.79,15.13-1.5c-2.5,1.25-5.04,2.58-7.81,3.1
				c-3.35,0.41-6.75,0.43-10.05,1.14c-1.88,0.74-3.32,2.24-4.95,3.37c-2.17,1.08-4.66,1.29-7.01,1.77
				c-24.85,4.44-51.15,1.29-74.03-9.47c6.31,1,12.69,1.38,19.05,1.82c-3.99-2.35-7.85-4.91-11.74-7.4c-1.54-1.09-3.43-1.35-5.26-1.4
				c1.18-0.57,2.34-1.18,3.54-1.73c3.54-0.25,7.09,0.05,10.63,0.24c-1.2-1.26-2.41-2.54-3.57-3.81c3.16-0.68,5.28,2.11,7.52,3.8
				c3.03,0.06,6.05,0.14,9.08,0.23c-1.96-2.81-5.25-5.25-5.24-8.97c3.74,1.85,5.12,6.16,8.25,8.71c1.95,0.78,4.13,0.56,6.19,0.83
				C246.74,368.01,244.61,364.34,243.39,360.28z M264.02,360.45c-0.06,3.58-0.07,7.17-0.01,10.76c2.49-0.13,5.11,0.35,7.53-0.37
				c1.15-1.98,1.88-4.16,2.77-6.25c-1.66-0.54-3.32-1.07-4.97-1.62c0.06-0.64,0.18-1.92,0.23-2.56
				C267.72,360.43,265.87,360.44,264.02,360.45z M246.89,360.97c-0.2,3.91,2.2,7.95,4.89,10.74c-1.11-3.46-2.44-6.86-3.88-10.2
				C247.65,361.37,247.15,361.1,246.89,360.97z M249.98,360.49c1.08,3.02,2.26,6.01,3.35,9.04c2.59,1.31,5.44,1.88,8.36,1.74
				c-0.02-3.59-0.03-7.19,0-10.78C257.79,360.47,253.88,360.45,249.98,360.49z M221.44,372.69c3.46,3,8.08,4,11.68,6.8
				c2.45,1.98,5.57,2.4,8.63,2.03c-3.45-2.38-6.8-4.9-10.09-7.48C228.81,371.69,224.8,372.88,221.44,372.69z M233.98,373.04
				c4.71,3.43,9.14,7.41,14.58,9.67c-0.44-3.99-4.24-6.26-6.28-9.41C239.52,373.14,236.75,373.05,233.98,373.04z M245.32,373.24
				c0.61,0.84,1.24,1.67,1.89,2.5c1.03-0.29,0.97-1.59,1.5-2.32C247.86,373.38,246.17,373.28,245.32,373.24z M255.94,373.46
				c0.34,3.08,1.58,5.94,2.9,8.72c0.72,0.03,2.16,0.08,2.88,0.11c-0.06-3.02-0.08-6.02-0.1-9.03
				C259.72,373.31,257.83,373.37,255.94,373.46z M263.93,373.3c-0.02,2.97-0.02,5.95,0.31,8.92c2.59-2.58,4.59-5.64,6.3-8.84
				C268.33,373.33,266.13,373.31,263.93,373.3z M275.78,373.35c0.67,1.08,1.32,2.15,2,3.24c0.98-1.09,1.96-2.18,2.93-3.27
				C279.06,373.32,277.42,373.33,275.78,373.35z M283.43,373.33c-1.43,1.75-2.9,3.47-4.38,5.18c1.12,0.31,2.22,1.77,3.44,1.08
				c3.31-1.8,6.19-4.29,9.19-6.55C288.92,373.06,286.18,373.16,283.43,373.33z"/>
		</g>
	</g>
</g>
</svg>
